<svg xmlns="http://www.w3.org/2000/svg" version="1.1" viewBox="0 0 110 110">
  <path d="M21.29,16.8h67.42c6.21,0,11.29,5.08,11.29,11.29v45.76c0,6.21-5.08,11.29-11.29,11.29H21.29c-6.21,0-11.29-5.08-11.29-11.29V28.09c0-6.21,5.08-11.29,11.29-11.29h0ZM49.26,41.89c-1.24,0-2.25,1.01-2.25,2.25v30.3h-6.4v-16.07c0-1.24-1.01-2.25-2.25-2.25h-11.45c-1.24,0-2.25,1.01-2.25,2.25v16.07h-2.47c-2.97,0-2.97,4.51,0,4.51h60.89c3.09-.02,6.98.73,6.98-2.25,0-2.69-3.02-2.25-4.73-2.25V29.92c0-1.24-1.01-2.25-2.25-2.25h-11.45c-1.24,0-2.25,1.01-2.25,2.25v44.52h-6.4v-30.3c0-1.24-1.01-2.25-2.25-2.25h-11.45ZM58.46,46.4h-6.94v28.04h6.94v-28.04h0ZM80.82,32.17h-6.94v42.26h6.94v-42.26h0ZM36.1,60.62h-6.94v13.82h6.94v-13.82h0ZM38.47,95.2c-1.96,0-1.96-2.98,0-2.98h33.07c1.96,0,1.96,2.98,0,2.98h-33.07ZM88.71,19.78H21.29c-4.57,0-8.31,3.74-8.31,8.31v45.76c0,4.57,3.74,8.31,8.31,8.31h67.42c4.57,0,8.31-3.74,8.31-8.31V28.09c0-4.57-3.74-8.31-8.31-8.31Z" fill="currentColor"/>
</svg>