<?xml version="1.0" encoding="UTF-8"?>
<svg id="Layer_1" xmlns="http://www.w3.org/2000/svg" version="1.1" viewBox="0 0 24 24">
  <!-- Generator: Adobe Illustrator 30.1.0, SVG Export Plug-In . SVG Version: 2.1.1 Build 136)  -->
  <path d="M21.59,13.86c-.55-.66-1.34-1.07-2.18-1.16-.85-.09-1.69.17-2.36.7-.06.07-.15.1-.24.11-.09,0-.18-.03-.24-.1-.61-.46-1.35-.71-2.1-.7-.75,0-1.47.25-2.05.73s-.98,1.15-1.13,1.9c-.14.68-.12,1.39.04,2.06.16.68.47,1.31.91,1.84,1.1,1.38,2.49,2.49,4.08,3.23.15.09.33.14.5.13.18,0,.35-.05.5-.14.89-.46,1.74-1.01,2.52-1.63,1.13-.83,1.97-2.01,2.41-3.37.2-.61.25-1.26.14-1.9-.11-.63-.39-1.23-.79-1.72h0v.02ZM20.79,16.57c-.24,1.13-.88,2.14-1.79,2.83-.6.52-1.26.97-1.95,1.34-.05.05-.12.07-.19.08-.07,0-.14,0-.2-.04-1.25-.62-2.34-1.53-3.19-2.65-.37-.47-.59-1.04-.65-1.63-.05-.41.02-.83.21-1.2s.49-.66.86-.84c.38-.12.79-.12,1.18,0,.38.12.72.36.97.67.1.18.26.31.44.39.19.08.39.08.58.03.18-.07.33-.19.43-.35.18-.24.42-.44.68-.59.27-.14.56-.23.86-.25.27,0,.53.05.77.16s.46.28.62.5c.17.21.29.46.35.73.06.27.06.54,0,.81" fill="#ff9b77"/>
  <path d="M1.56,16.06v-5.53c0-.17.03-.34.1-.5s.18-.29.31-.4c3.1-2.63,6.2-5.26,9.31-7.9.56-.48.87-.48,1.43,0,3.11,2.64,6.22,5.28,9.33,7.93.1.06.19.15.25.25.07.1.11.21.13.33.02.12.01.24-.02.36s-.09.22-.16.32-.17.17-.28.22-.22.08-.34.08-.23-.02-.34-.07c-.11-.05-.2-.12-.28-.21-2.84-2.41-5.69-4.82-8.53-7.24-.48-.41-.47-.41-.95,0-2.63,2.24-5.27,4.47-7.9,6.7-.14.1-.26.24-.34.41-.08.16-.11.34-.1.52.02,3.08.02,6.15,0,9.23,0,.38.11.44.45.44,2.63-.01,5.26,0,7.89,0,.18-.02.36.03.51.13.15.1.26.25.32.42.06.17.06.36,0,.54-.06.17-.17.32-.32.42-.14.1-.3.14-.46.14H2.4c-.12,0-.23-.01-.34-.05-.11-.04-.2-.11-.28-.19-.08-.09-.14-.19-.18-.3-.04-.11-.05-.23-.04-.35v-5.67" fill="#ff9b77"/>
</svg>