<svg xmlns="http://www.w3.org/2000/svg" version="1.1" viewBox="0 0 110 110">
  <path d="M95.84,60.79h0c.01-.11.01-.22,0-.34.01-.11.01-.22,0-.34l-13.38-37.17h0c-.09-.21-.21-.41-.36-.59h0c-2.8-3.04-6.66-4.88-10.78-5.15-4.13-.01-8.11,1.48-11.21,4.2v-6.87c0-1.09-.88-1.97-1.97-1.97h-6.75c-1.09,0-1.97.88-1.97,1.97v1.14c-2.81-2.05-6.2-3.13-9.67-3.1-4.05.25-7.86,2.03-10.66,4.97h0c-.15.18-.26.38-.36.59h0l-13.4,37.17c0,.11,0,.22,0,.34,0,.11,0,.22,0,.34v.1h0c.05,6.08,4.97,11,11.05,11.05h8.19c6.09-.03,11.03-4.94,11.09-11.03h0v-.1c0-.11,0-.22,0-.34,0-.11,0-.22,0-.34l-12.89-35.93c1.94-1.7,4.39-2.72,6.97-2.88,3.66.04,7.14,1.54,9.67,4.18v65.57h-7.3c-4.76,0-8.63,3.86-8.63,8.63,0,1.09.88,1.97,1.97,1.97h38.69c1.09,0,1.97-.88,1.97-1.97,0-4.76-3.86-8.63-8.63-8.63h-7.3V26.44c.33-.08.62-.24.87-.47,2.61-2.96,6.32-4.7,10.26-4.82,2.61.16,5.1,1.18,7.07,2.9l-12.99,35.99c-.01.11-.01.22,0,.34,0,.09,0,.17,0,.26,0,.03,0,.07,0,.1h0c.06,6.11,5.04,11.03,11.15,11.03h8.19c6.11,0,11.09-4.92,11.15-11.03l-.06.06ZM30.48,24.72l10.48,29.29h-20.96l10.48-29.29ZM34.57,63.19h-8.19c-3.22,0-6.05-2.14-6.95-5.23h22.09c-.9,3.09-3.73,5.23-6.95,5.23ZM71.74,92.9h-33.87c.78-1.63,2.43-2.67,4.24-2.66h25.39c1.81,0,3.46,1.03,4.24,2.66ZM53.36,86.29V16.51h2.88v69.78h-2.88ZM80.58,29.44l10.48,29.21h-20.96l10.48-29.21ZM84.69,67.91h-8.19c-3.24-.01-6.08-2.18-6.95-5.31h22.09c-.87,3.13-3.7,5.3-6.95,5.31Z" fill="currentColor"/>
</svg>