<svg xmlns="http://www.w3.org/2000/svg" version="1.1" viewBox="0 0 110 110">
  <path d="M72.26,20.35c-1.97-1.97-5.16-1.97-7.13,0-1.97,1.97-1.97,5.15,0,7.12l11.54,11.48H18.51c-2.77,0-5.02,2.24-5.02,5.01s2.25,5.01,5.02,5.01h70.25c2.03-.01,3.85-1.24,4.62-3.11.79-1.87.37-4.02-1.05-5.47l-20.07-20.06ZM88.76,59.02H18.5c-2.03.01-3.85,1.24-4.62,3.11-.79,1.87-.37,4.02,1.05,5.46l20.07,20.05c.94.95,2.22,1.48,3.56,1.48s2.62-.53,3.56-1.48c.95-.94,1.48-2.22,1.48-3.56s-.53-2.62-1.48-3.56l-11.54-11.48h58.16c2.77,0,5.02-2.24,5.02-5.01s-2.25-5.01-5.02-5.01Z" fill="currentColor"/>
</svg>