<svg version="1.1" xmlns="http://www.w3.org/2000/svg" viewBox="0 0 91 81">
<path fill="#FFE1D6" d="M89.6,47.2H1.4c-0.8,0-1.4-0.6-1.4-1.4V1.4C0,0.6,0.6,0,1.4,0h88.2C90.4,0,91,0.6,91,1.4v44.4C91,46.6,90.4,47.2,89.6,47.2z"/>
<path d="M58.8,11.9c-0.5,0-0.8-0.3-0.8-0.7v-7c0-0.4,0.3-0.7,0.7-0.7h0.1c0.4,0,0.7,0.3,0.7,0.7v7C59.4,11.6,59.1,11.9,58.8,11.9z"/>
<path d="M58.8,22.5c-0.5,0-0.8-0.3-0.8-0.7v-7c0-0.4,0.3-0.7,0.7-0.7h0.1c0.4,0,0.7,0.3,0.7,0.7v7C59.4,22.3,59.1,22.5,58.8,22.5z"/>
<path d="M58.8,33.3c-0.5,0-0.8-0.3-0.8-0.7v-7c0-0.4,0.3-0.7,0.7-0.7h0.1c0.4,0,0.7,0.3,0.7,0.7v7C59.4,33,59.1,33.3,58.8,33.3z"/>
<path d="M58.8,43.9c-0.5,0-0.8-0.3-0.8-0.7v-7c0-0.4,0.3-0.7,0.7-0.7h0.1c0.4,0,0.7,0.3,0.7,0.7v7C59.4,43.6,59.1,43.9,58.8,43.9z"/>
<path fill="#899097" d="M33.3,70.1c0.1-0.6,0.1-1.2,0.3-1.8c0.7-4,4.3-7.6,8.6-8.6c0.7-0.2,2-0.4,3.6-0.2c0.1-0.1,0.3-0.1,0.4-0.2c2.6-3.2,5.1-6.4,7.7-9.6c1.6-2,3.2-4,4.8-6c7-8.7,13.9-17.3,20.9-25.9c0.7,0.7,1.3,1.4,1.7,2.3c0.9,1.8,0.8,3.6,0.2,5.5c-0.6,1.8-1.6,3.2-2.7,4.6c-3.3,4-6.6,8.1-9.9,12.1c-1.8,2.2-3.6,4.5-5.4,6.8c-0.1,0.1-0.2,0.2-0.3,0.3c0.1,0.2,0.2,0.3,0.4,0.5c2.5,3.2,5.1,6.3,7.6,9.5c0.1,0.2,0.3,0.2,0.5,0.2c1.7-0.1,3.3,0,4.9,0.6c4,1.5,6.5,4.4,7.2,8.6c0.6,3.5-0.5,6.6-3.1,9.1c-1.8,1.7-3.8,2.8-6.3,3.1c-0.2,0-0.4,0.1-0.6,0.1c-0.5,0-1.1,0-1.6,0c-0.3,0-0.5-0.1-0.8-0.1c-3.9-0.6-6.8-2.6-8.4-6.2c-1.9-4.1-1.3-8,1.6-11.6c0.1-0.1,0.2-0.3,0.3-0.4c-2.1-2.6-4.2-5.2-6.3-7.8c-2.1,2.6-4.2,5.2-6.3,7.8c0.2,0.2,0.3,0.4,0.5,0.6c1.4,1.8,2.4,3.8,2.4,6.1c0,1.1,0.1,2.2-0.2,3.2c-1.1,4.1-3.8,6.8-7.9,7.9c-0.7,0.2-1.4,0.3-2.1,0.4c-0.5,0-1.1,0-1.6,0c-0.3,0-0.5-0.1-0.8-0.1c-4.2-0.6-7.9-3.8-9-7.9c-0.2-0.7-0.3-1.5-0.4-2.2C33.3,70.6,33.3,70.3,33.3,70.1z M73,63.4c-0.8,0.1-1.5,0.1-2.2,0.3c-5,1.6-6,6.9-3.8,10.3c2.3,3.4,7,4.1,10.2,1.6c2.1-1.6,3.1-3.8,2.7-6.5C79.4,65.8,76.4,63.4,73,63.4z M43.8,77c1.6,0,2.7-0.3,3.7-0.8c3.3-1.6,4.8-5.5,3.3-8.8c-2-4.4-8-5.5-11.5-2c-1.7,1.7-2.4,3.8-1.9,6.1C38.1,74.8,41,77,43.8,77z M58.6,47.5c-1.1,0-1.9,0.8-1.9,1.8s0.9,1.9,1.9,1.9c1.1,0,1.9-0.8,2-1.9C60.6,48.5,59.8,47.3,58.6,47.5z"/>
</svg>