<svg xmlns="http://www.w3.org/2000/svg" version="1.1" viewBox="0 0 110 110">
  <path d="M55.78,52.74c.53-.53.53-1.39,0-1.93-.53-.53-1.39-.53-1.93,0l-1.12,1.12c-3.23-2.46-7.47-2.59-9.95-.11s-2.35,6.72.11,9.95l-6.11,6.11c-.61-.89-1-1.88-1.11-2.87-.14-1.29.2-2.43.98-3.2.53-.54.53-1.4,0-1.93s-1.39-.53-1.93,0c-1.38,1.38-2,3.3-1.77,5.43.18,1.6.84,3.16,1.88,4.52l-1.11,1.11c-.39.39-.51.98-.3,1.49s.71.84,1.26.84c.35,0,.7-.13.96-.4l1.11-1.11c1.65,1.26,3.57,1.91,5.38,1.91s3.36-.59,4.57-1.8c2.48-2.48,2.35-6.72-.11-9.95l6.11-6.11c1.45,2.11,1.57,4.64.13,6.07h0c-.54.53-.54,1.39,0,1.92.53.53,1.39.53,1.93,0,2.48-2.48,2.35-6.72-.11-9.95l1.12-1.12h0ZM44.79,69.93c-1.44,1.44-3.97,1.32-6.07-.13l5.94-5.94c1.45,2.11,1.57,4.64.13,6.07ZM44.84,59.82c-1.45-2.11-1.57-4.64-.13-6.07s3.97-1.32,6.07.13l-5.94,5.94ZM30.27,76.27c-3.57-3.59-6.35-7.51-7.38-9.02-.2-.3-.51-.52-.87-.59-.36-.07-.73,0-1.03.21s-.51.52-.57.88c-.07.36.01.73.22,1.03,1.07,1.58,3.97,5.67,7.7,9.42,3.88,3.9,7.93,6.73,9.48,7.77.63.42,1.48.25,1.89-.38.41-.62.25-1.47-.38-1.89-1.49-.99-5.36-3.7-9.06-7.42h0ZM53.51,42.24c.27.27.61.4.96.4s.7-.13.96-.4c.25-.25.4-.6.4-.96s-.14-.71-.4-.96l-3.61-3.61c-.54-.5-1.38-.48-1.89.04-.52.52-.54,1.36-.04,1.89l3.61,3.61h0ZM59.05,43.93c-.53-.54-1.39-.54-1.93,0-.53.53-.53,1.39,0,1.93l3.61,3.61c.25.26.6.4.96.4s.71-.14.96-.4.4-.6.4-.96-.14-.71-.4-.96l-3.61-3.61ZM66.28,51.15c-.54-.53-1.4-.53-1.93,0s-.53,1.39,0,1.93l3.61,3.61c.27.27.61.4.96.4s.7-.13.96-.4c.25-.26.4-.61.4-.96s-.14-.71-.4-.96l-3.61-3.61Z" fill="currentColor"/>
  <path d="M94.06,12.5c-2.25-2.25-5.64-3.01-9.55-2.16-4.55.99-9.22,4.1-12.59,8.35h-12.23c-2.55,0-5,1.06-6.75,2.93L12.31,62.23c-3.81,3.81-3.81,10.01,0,13.82l18.23,18.23c1.83,1.84,4.32,2.87,6.91,2.86,2.59,0,5.08-1.02,6.91-2.86l.71-.71,10.03,5.14c2.25,1.29,4.93,1.62,7.43.94,2.5-.68,4.63-2.33,5.92-4.59l23.08-44.11c1.35-2.18,1.74-4.81,1.08-7.28l-2.95-10.63c3.23-3.1,5.7-7.04,6.56-11,.85-3.91.08-7.3-2.16-9.55h0ZM85.18,27.95c.1,1.32,0,5.31,0,5.31-1.8,1.26-3.75,2.21-5.72,2.73,0-.07,0-.14,0-.21,0-2.31-.9-4.48-2.54-6.12-1.62-1.63-3.82-2.54-6.12-2.54-2.31,0-4.48.9-6.12,2.54-3.37,3.37-3.37,8.86,0,12.23h0c1.62,1.62,3.82,2.54,6.12,2.53,2.31,0,4.48-.9,6.12-2.54.85-.85,1.52-1.87,1.95-2.99.2-.04.4-.07.6-.11,1.93-.42,3.86-1.23,5.7-2.31v10.43h0c0,1.82-.76,3.56-2.1,4.79l-8.12,8.14-1.45-1.45c-.53-.54-1.39-.54-1.93,0-.53.53-.53,1.39,0,1.93l1.45,1.45-30.6,30.6c-1.32,1.32-3.11,2.07-4.98,2.06-1.87,0-3.66-.74-4.98-2.06l-18.23-18.23c-2.75-2.75-2.75-7.21,0-9.96l30.6-30.6,1.45,1.45c.27.27.61.4.96.4s.7-.13.96-.4c.26-.26.4-.61.4-.96s-.14-.71-.4-.96l-1.45-1.45,8.14-8.12c1.23-1.34,2.96-2.11,4.79-2.1h18.95c2.92,0,5.6,1.87,6.23,4.57.11.48.27,1.47.3,1.96h0ZM72.06,34.88c-1.27-1.14-1.92-2.89-1.89-4.99h0c1.79-.21,3.57.42,4.83,1.7,1.27,1.26,1.89,3.02,1.7,4.8-1.89.04-3.5-.47-4.65-1.51h0ZM75.72,39.09c-.21.31-.45.6-.72.88h0c-1.11,1.11-2.61,1.73-4.19,1.73-1.57,0-3.08-.62-4.19-1.73-2.31-2.32-2.31-6.06,0-8.38.26-.26.54-.49.84-.7.18,2.45,1.12,4.54,2.76,6.02,1.45,1.3,3.34,2.04,5.49,2.18h0ZM89.98,44.39c.47,1.75.19,3.63-.79,5.16-.02.03-23.15,44.22-23.15,44.22-1.95,3.35-6.25,4.49-9.61,2.55l-.06-.03-9.28-4.75s37.8-37.81,37.85-37.88l.02-.03h0c1.86-1.75,2.92-4.19,2.92-6.74v-9.98l2.07,7.47h0ZM93.55,21.47c-.66,3.04-2.4,6.06-4.73,8.59l-1.17-4.21c-.95-4.1-4.63-7.16-9.02-7.16h-3.11c2.78-2.89,6.22-4.96,9.55-5.68,2.98-.64,5.48-.14,7.04,1.43,1.57,1.57,2.07,4.07,1.43,7.04Z" fill="currentColor"/>
</svg>