<svg xmlns="http://www.w3.org/2000/svg" version="1.1" viewBox="0 0 110 110">
  <path d="M71.45,34.15c-7.9-6.74-17.01-8.07-26.5-3.96-9.73,4.22-14.83,12.05-15.22,22.63-.24,7.02,2.3,13.19,7.3,18.2,2.59,2.57,4.18,5.53,4.22,9.23.02,1.21,0,2.4,0,3.61h-.12c0,1.26-.02,2.54.02,3.8.05,2.06.81,3.8,2.84,4.51,1.23.45,1.7,1.19,2.07,2.33,1.43,4.25,5.01,6.57,9.53,6.29,4.77-.31,7.48-2.49,8.49-6.97.19-.83.54-1.14,1.3-1.33,2.04-.48,3.11-1.92,3.29-3.94.14-1.88.23-3.8.11-5.69-.31-4.74,1.31-8.49,4.6-11.98,10.16-10.75,9.3-27.21-1.9-36.75h0ZM58.87,94.45c-.86,1.49-2.39,1.78-3.93,1.73-1.7-.04-3.29-.47-4.13-2.16-.41-.85-.24-1.45.9-1.43,1.14.02,2.27,0,3.41,0v-.04c.88,0,1.76-.04,2.64,0,1.68.05,1.96.46,1.11,1.9h0ZM64,85.91c-.11,1.02.16,2.06-1.45,2.04-5.07-.04-10.13-.02-15.19.04-1.18,0-1.37-.61-1.3-1.57.05-.93-.16-1.95,1.35-1.92,2.54.05,5.07,0,7.61,0s4.93.02,7.4,0c1.02-.02,1.73.1,1.59,1.42h0ZM70.55,66.96c-3.13,3.53-5.89,7.14-6.31,12.05-.05.71-.43.9-1.12.97-5.74.57-5.77.57-5.79-5.19-.02-2.49.04-4.96-.04-7.43-.02-.98.33-1.64,1.07-2.27,2.28-1.92,4.53-3.89,6.78-5.84,1.4-1.23,1.71-2.79.69-3.8-1.26-1.23-2.56-.81-3.72.21-2,1.76-4.03,3.51-5.96,5.32-.76.71-1.3.74-2.06.05-1.88-1.71-3.8-3.37-5.72-5.03-1.4-1.19-3.01-1.28-3.87-.14-1.05,1.4-.52,2.63.66,3.66,2.04,1.82,4.1,3.61,6.19,5.38.86.73,1.35,1.52,1.26,2.75-.12,1.7-.04,3.42-.04,5.13h.04c0,1.97-.05,3.94.02,5.91.04.98-.31,1.31-1.31,1.26-1.57-.07-3.36.41-4.7-.16-1.43-.62-.78-2.68-1.23-4.08-1.05-3.23-2.99-5.86-5.22-8.3-5.6-6.14-7.23-13.29-4.46-20.99,2.8-7.85,8.7-12.5,17.12-13.45,8.75-1,16.48,3.23,20.59,11.06,3.86,7.32,2.81,16.5-2.84,22.91h0ZM57.74,16.02s-.04,0-.05,0c0,1.27.07,2.54-.02,3.8-.1,1.59-.97,2.67-2.59,2.77-1.53.09-2.65-.86-2.81-2.31-.33-2.96-.46-5.95-.04-8.91.2-1.42,1.29-2.22,2.7-2.2,1.43.02,2.42.85,2.59,2.3.18,1.5.16,3.03.22,4.55h0ZM98.89,55.18c-.05,1.52-1.15,2.48-2.96,2.57-.63.03-1.27,0-1.89,0-.63,0-1.27,0-1.9,0h0c-1.27,0-2.53.06-3.79,0-1.64-.09-2.88-1.31-2.88-2.72,0-1.46,1.18-2.62,2.89-2.66,2.53-.05,5.06-.05,7.59.03,1.86.06,3,1.22,2.95,2.8h0ZM28.99,71.03c.82,1.41.31,3-1.32,3.99-1.89,1.14-3.81,2.24-5.72,3.37-.61.36-1.22.68-1.96.62-1.16-.05-2.1-.47-2.48-1.66-.44-1.36-.07-2.58,1.11-3.33,2.07-1.33,4.21-2.56,6.37-3.74,1.66-.91,3.25-.55,4.01.75ZM35.37,25.59c-1.33-2.08-2.62-4.19-3.84-6.34-1.07-1.89.02-4.06,1.91-4.09,1.16.14,2.14.47,2.77,1.5,1.26,2.05,2.6,4.06,3.82,6.13.86,1.47.5,3.11-.71,3.87-1.28.81-3.02.39-3.95-1.07h0ZM18.35,36.4c-1.17-.71-1.67-1.9-1.27-3.29.36-1.29,1.32-1.77,2.15-1.77,1.22.03,1.91.29,2.58.68,1.75,1.02,3.53,1.97,5.29,2.97,1.52.87,2.14,2.48,1.49,3.84-.65,1.36-2.27,1.86-3.92,1.03-2.14-1.07-4.26-2.22-6.31-3.46ZM92.67,76.54c0,1.96-1.88,3.21-3.73,2.28-2.42-1.21-4.77-2.59-7.06-4.03-1.21-.76-1.49-2.02-.92-3.34.62-1.43,1.94-1.75,3.19-1.31,2.81,1,5.24,2.75,7.72,4.37.66.43.8,1.25.81,2.04h0ZM17.66,57.76c-1.27,0-2.54.06-3.8-.02-1.59-.1-2.61-.98-2.74-2.61-.12-1.52.99-2.64,2.8-2.7,2.53-.09,5.07-.09,7.6,0,1.65.05,2.65,1.18,2.61,2.67-.04,1.56-1.14,2.61-2.85,2.66-1.2.03-2.41,0-3.61,0h0ZM70.8,26.7c-1.25-.7-1.62-2.34-.76-3.83,1.27-2.19,2.58-4.36,3.95-6.49.73-1.14,1.87-1.46,3.16-1.04,1.2.39,1.57,1.37,1.67,2.09.03,1.15-.32,1.75-.68,2.35-1.14,1.9-2.27,3.81-3.43,5.69-.92,1.48-2.58,1.98-3.91,1.23h0ZM81.46,38.79c-.64-1.27-.06-2.79,1.43-3.65,1.97-1.14,3.91-2.31,5.94-3.35,2.19-1.12,4.22-.02,4.22,2.49-.02.77-.38,1.71-1.35,2.25-2.09,1.17-4.19,2.34-6.32,3.42-1.54.78-3.21.22-3.91-1.16Z" fill="currentColor"/>
</svg>