<svg version="1.1" xmlns="http://www.w3.org/2000/svg" viewBox="0 0 99 77">
<path fill="#FFE1D6" d="M33.2,33.3H7c-1.6,0-2.9-1.2-2.9-2.7V30c0-1.5,1.3-2.7,2.9-2.7h26.2c1.6,0,2.9,1.2,2.9,2.7v0.6C36.1,32.1,34.7,33.3,33.2,33.3z"/>
<path fill="#FFE1D6" d="M30.5,61.6H9.7c-1.3,0-2.3-1.2-2.3-2.7v-0.6c0-1.5,1-2.7,2.3-2.7h20.8c1.3,0,2.3,1.2,2.3,2.7v0.6C32.8,60.4,31.7,61.6,30.5,61.6z"/>
<path fill="#FFE1D6" d="M26.3,49.5H2.4c-1.3,0-2.4-1.3-2.4-2.9v-0.2c0-1.6,1.1-2.9,2.4-2.9h23.9c1.3,0,2.4,1.3,2.4,2.9v0.2C28.7,48.1,27.6,49.5,26.3,49.5z"/>
<path fill="#E7E8EA" d="M91,22.8l2-2.2c0.6-0.6,0.5-1.6-0.1-2.2l-4.6-4.2c-0.6-0.6-1.6-0.5-2.2,0.1L84,16.7c-3.6-2.3-7.6-3.9-12-4.7V8h1.6C74.4,8,75,7.4,75,6.6V1.4C75,0.6,74.4,0,73.6,0H58.9c-0.8,0-1.4,0.6-1.4,1.4v5.2c0,0.8,0.6,1.4,1.4,1.4h1.6v4c-15.4,2.7-27,16.1-27,32.2C33.5,62.3,48.1,77,66.2,77S99,62.3,99,44.3C99,36,96,28.5,91,22.8z"/>
<path d="M66.2,39.3c-0.8,0-1.5,0.2-2.2,0.5L53.9,29.6c-0.6-0.6-1.6-0.6-2.2,0c-0.6,0.6-0.6,1.6,0,2.2L61.9,42c-0.3,0.7-0.5,1.4-0.5,2.2c0,2.7,2.2,5,5,5c2.8,0,5-2.2,5-5S69,39.3,66.2,39.3z"/>
</svg>