<svg version="1.1" xmlns="http://www.w3.org/2000/svg" xmlns:xlink="http://www.w3.org/1999/xlink" x="0px" y="0px" viewBox="0 0 2214 1100.6" style="enable-background:new 0 0 2214 1100.6;" xml:space="preserve" width="100%" height="100%" preserveAspectRatio="xMidYMid slice" class="w-full h-full">
<style type="text/css">
.st0 {
fill: url(#d_00000007426762447277503780000002868118065209296774_);
}

.st1 {
fill: #F4F4F4;
}

.st2 {
fill: #FFFFFF;
stroke: #E8ECEF;
stroke-width: 2;
stroke-miterlimit: 10;
}

.st3 {
fill: #F7F7F7;
stroke: #E8ECEF;
stroke-width: 2;
stroke-miterlimit: 10;
}

.st4 {
fill: none;
stroke: #E8ECEF;
stroke-width: 2;
stroke-miterlimit: 10;
}

.st5 {
clip-path: url(#SVGID_00000134956086956413119110000016670908200866877331_);
}

.st6 {
fill: #FFFFFF;
}

.st7 {
fill: #F7F7F7;
}

.st8 {
fill: #E8ECEF;
}

.st9 {
fill: #EAEAEA;
stroke: #C0C2C4;
stroke-width: 2;
stroke-miterlimit: 10;
}

.st10 {
fill: #F2F2F2;
stroke: #C0C2C4;
stroke-width: 2;
stroke-miterlimit: 10;
}

.st11 {
fill: #E6E7E8;
}

.st12 {
fill: #F7F7F7;
stroke: #C0C2C4;
stroke-width: 2;
stroke-miterlimit: 10;
}

.st13 {
fill: #E1E3E4;
}

.st14 {
fill: #5B646E;
}

.st15 {
opacity: 0.2;
}

.st16 {
fill: #BFBFBF;
}

.st17 {
fill: #FFFFFF;
stroke: #C0C2C4;
stroke-width: 2;
stroke-miterlimit: 10;
}

.st18 {
fill: none;
stroke: #C0C2C4;
stroke-width: 2;
stroke-miterlimit: 10;
}

.st19 {
fill: #E1E3E4;
stroke: #C0C2C4;
stroke-width: 2;
stroke-miterlimit: 10;
}

.st20 {
fill: #F0F0F1;
stroke: #C0C2C4;
stroke-miterlimit: 10;
}

.st21 {
fill: url(#SVGID_00000000903713605151943300000008299465652797743275_);
}

.st22 {
fill: #F0F0F1;
}

.st23 {
fill: #F0F0F1;
stroke: #5B646E;
stroke-width: 2;
stroke-miterlimit: 10;
}

.st24 {
fill: #FFFFFF;
stroke: #5B646E;
stroke-width: 2;
stroke-miterlimit: 10;
}

.st25 {
fill: none;
stroke: #5B646E;
stroke-width: 2;
stroke-miterlimit: 10;
}

.st26 {
fill: #647065;
}

.st27 {
fill: #EDF0ED;
}

.st28 {
fill: #FAFAFF;
}

.st29 {
fill: none;
}

.st30 {
fill: #F7F6F6;
}

.st31 {
fill: #5D812D;
}

.st32 {
fill: none;
stroke: #5B646E;
stroke-width: 2.0631;
stroke-linecap: round;
stroke-miterlimit: 13.754;
}

.st33 {
fill: #F9F9F9;
stroke: #5B646E;
stroke-width: 2;
stroke-miterlimit: 10;
}

.st34 {
fill: #E1E3E4;
stroke: #5B646E;
stroke-width: 2;
stroke-miterlimit: 10;
}

.st35 {
fill: #CCCCCC;
stroke: #5B646E;
stroke-width: 2;
stroke-miterlimit: 10;
}

.st36 {
fill: #CCCCCC;
}

.st37 {
fill: #FFFFFF;
stroke: #5B646E;
stroke-miterlimit: 10;
}

.st38 {
fill: url(#SVGID_00000114758260106872234010000009127089863775958463_);
}

.st39 {
fill: #E7E5E5;
}

.st40 {
fill: #1C272B;
}

.st41 {
fill: #FFFFFF;
stroke: #5B646E;
}

.st42 {
fill: #101A23;
}

.st43 {
opacity: 0.2;
fill: #FFFFFF;
stroke: #5B646E;
stroke-miterlimit: 10;
}

.st44 {
fill: #808080;
}

.st45 {
fill: #6B6B6B;
}

.st46 {
fill: #FFFFFF;
stroke: #FFFFFF;
stroke-width: 2;
stroke-miterlimit: 10;
}
</style>
<g id="LayerSky">
<g id="b_00000165917926609023243350000007741679732873242043_" transform="translate(1107,788)">
<g id="c_00000171720885779946186910000012395519986903762346_">

<linearGradient id="d_00000091733400923946576560000007070780230979133878_" gradientUnits="userSpaceOnUse"
x1="-1107" y1="-481.5148" x2="-1107" y2="-271.2033" gradientTransform="matrix(1 0 0 -1 1107 -236.0879)">
<stop offset="0" style="stop-color:#F7F6F6" />
<stop offset="0.215" style="stop-color:#F7F6F6" />
<stop offset="0.43" style="stop-color:#F7F6F6" />
<stop offset="0.715" style="stop-color:#FBFAFA" />
<stop offset="1" style="stop-color:#FFFFFF" />
</linearGradient>

<path id="d_00000001660878927966633170000000375454788929539997_"
style="fill:url(#d_00000091733400923946576560000007070780230979133878_);" d="
M-1104.4,34.8h2208.8v218.4h-2208.8V34.8z" />
</g>
</g>
<g id="clouds">
<g id="clouditem02">
<g id="Layer0_13_FILL">
<path class="st1" d="M131.2,284.3c-0.3,0.2-0.7,0.5-1.1,0.7c0-0.5-0.2-1-0.4-1.5c-2.9-6.5-17.9-12.1-27.2-4.4
c-5.3,3.6-8,7.7-8,12.3c0,2.2,0.4,5.2,1.1,9.1c0,1.7-0.7,3.3-2.2,4.7s-3,2.2-4.7,2.2c-2.4,0-4.1-0.5-5.1-1.5
c-1-1.2-2.5-1.8-4.7-1.8c-1.5,0-4.1,1.7-8,5.1c-4.1,3.4-6.5,5.1-7.3,5.1c-2.2-1.9-5.3-2.9-9.4-2.9c-3.9,0-7.5,1.2-10.9,3.6
c-3.4,2.2-5.1,4.5-5.1,6.9c0,0.3,0,0.7,0,1.1c127.1-3.3,234.6-4.7,322.4-4c0.2-0.9,0.4-2,0.4-3.3c0-7.3-3.7-10.9-11.2-10.9
c-4.8,0.2-8.2,1.1-10.2,2.5h-2.5c0.5-1.5,0.6-2.7,0.4-3.6c-0.5-1.9-2.5-2.9-6.2-2.9c-3.6,0-6.4,0.5-8.3,1.5c0-1.9,0-3.4,0-4.4
c0.2-1.9-0.5-2.9-2.2-2.9c-0.5,0-1.3,0.2-2.5,0.7c-0.2,0.1-0.5,0.1-0.7,0c0.2-0.6,0.4-1.8,0.4-3.6c0-11.1-8.4-17.3-18.5-16.4
c-25.7,2.2-20.8,24.7-22.5,24.7c-1.5,0-3.1-0.4-5.1-1.1c-1.9-1-6.2-5.5-11.8-3.3c-3.1,1.5-2.1,6.5-3.1,6.5
c-1.7,0-3.1-1.5-4.4-4.4c-1-3.1-2.9-4.7-5.8-4.7c-2.7,0-4.7,0.4-6.2,1.1c0.1,0.3,0.1,0.5,0,0.7l-1.1,0.7c0.3-0.5,0.7-1,1.1-1.5
c6.4-5.9,10.9-9.1,7.6-18.4c-1.5-3.4-8-6.6-13.4-6.6c-0.4,0-0.7,0-1.1,0c-0.3-8.1-2.6-15.5-6.9-22.1
c-6.3-9.7-15.7-14.5-28.3-14.5c-11.8,0-22,3.4-30.5,10.2c-8.9,7-13.4,16.1-13.4,27.2c0,4.6,0.5,9.4,1.5,14.5h-0.4
c-0.7-1.5-1.5-2.7-2.2-3.6c-1.7-1.7-3.9-2.5-6.5-2.5C141.6,278.8,136.3,280.7,131.2,284.3 M316.9,296.2v0.4V296.2L316.9,296.2
M458.7,306.4c0-6-4.4-17.4-15.9-17.4c-10.6,0-14.1,2.3-16.1,6.9c-1,2.4-0.8,5.6,0.4,9.4c0,0-4.1-2.9-7.5-2.9
c-4.2,0-6.3,2.3-7.7,4.7c-1.2,2.4-2.4,3.6-3.6,3.6c-1.7,0-3.5-1-5.4-2.9c-1.9-2.2-7.1-3.8-13.1-1.7c-5,2.6-5.8,6.3-5.8,8.4
c-0.1,1.8,0.9,3.7,0.8,4.5c10.6,0.3,34.8,0,72.5-0.7C458.2,315.5,458.7,311.5,458.7,306.4 M490.3,302.4c-2.9,0-5.7,1.1-8.3,3.3
c-3.5,3.1-5.2,7.2-5.1,12.3c11.4-0.3,23.7-0.7,37-1.1c0.7-2,1.1-3.5,1.1-4.4c0-4.4-2.3-6.5-6.9-6.5c-6.5,1.2-9.9,1.8-10.2,1.8
c-1.7,0-3.1-0.8-4.4-2.5C492.6,303.4,491.5,302.4,490.3,302.4z" />
</g>
</g>
<path id="clouditem01" class="st1"
d="M2077.7,385.2c-1.1,0-1.8-1-1.6-2c0.1-0.6,0.2-1.2,0.2-1.8c0.5-8.4-8.9-15.8-20.9-16.4
c-5.2-0.3-10,0.7-13.9,2.6c-0.9,0.5-2-0.1-2.3-1.1c-1.1-4.3-5.3-7.6-10.5-7.9c-2.1-0.1-4.1,0.3-5.8,1c-0.9,0.4-1.9-0.1-2.2-1
c-4.2-11.6-15-20.1-28-20.9c-0.6,0-1.2,0-1.8,0c-0.6-0.1-1.2-0.1-1.9-0.2c-12.7-0.7-23.8,5.2-28.8,14.1c-0.2,0.4-0.6,0.7-1.1,0.8
c-7.7,1.6-13.7,6.8-15.1,13.5c-0.1,0.5-0.4,0.9-0.8,1.1c-2.8,1.7-4.8,4.5-5,7.6c-0.6-0.2-1.3-0.3-2.1-0.4c-4-0.2-7.3,2.3-7.5,5.7
c0,0.1,0,0.3,0,0.4c-1.1-0.8-2.5-1.3-4.1-1.4c-3.3-0.2-6.3,1.6-7.2,4.2c-0.1,0.3-0.3,0.5-0.5,0.7c-0.6,0.6-0.9,1.4-1,2.2
c0,0.3,0,0.6,0,0.9c0.1,0.8,0.8,1.4,1.6,1.4h37.1h29.5h68.4h20.7H2174c0.9,0,1.7-0.7,1.7-1.7l0,0c0-0.9-0.7-1.7-1.7-1.7H2077.7z" />
</g>
</g>
<g id="Layer03">
<g id="l3hr">
<rect x="1626" y="717.8" class="st2" width="101.1" height="317.7" />
<path class="st3"
d="M1625.8,718.2l-60.2,89.8l3.9,217.9l56.5,9.7l0-317.3C1626,718.1,1625.8,718.1,1625.8,718.2z" />
<rect x="1648.4" y="797.6" class="st4" width="20.9" height="32.2" />
<rect x="1648.4" y="749.5" class="st4" width="20.9" height="32.2" />
<rect x="1648.4" y="882.7" class="st4" width="20.9" height="32.2" />
<rect x="1648.3" y="928" class="st4" width="20.9" height="32.2" />
<path class="st4" d="M1626.8,978c13.2,0.9,33.6,0.9,57,0.6" />
<line class="st4" x1="1566.7" y1="831.8" x2="1626" y2="749.5" />
<line class="st4" x1="1566.5" y1="857.2" x2="1626" y2="788.7" />
<line class="st4" x1="1567.9" y1="934.5" x2="1626" y2="883.9" />
<line class="st4" x1="1568.3" y1="955.5" x2="1626" y2="916.2" />
<line class="st4" x1="1579" y1="814.8" x2="1579" y2="842.8" />
<line class="st4" x1="1594.4" y1="793.3" x2="1594.4" y2="824.8" />
<line class="st4" x1="1609.4" y1="772.6" x2="1609.4" y2="810.3" />
</g>
<g id="l3hl">
<g>
<defs>
<rect id="SVGID_1_" x="565.3" y="865.7" width="95.1" height="172.5" />
</defs>
<clipPath id="SVGID_00000080170108289697349070000016157255148551561146_">
<use xlink:href="#SVGID_1_" style="overflow:visible;" />
</clipPath>
<g style="clip-path:url(#SVGID_00000080170108289697349070000016157255148551561146_);">
<g id="ad5_00000077307714190966518690000013743760659285352356_" transform="translate(108.195,127.81)">
<path id="ad6_00000059279702791442898960000006906648341981966510_" class="st6" d="M539.7,868.7c-2.3-2.7-5-5-8-6.8
c2.4-3.4,3.8-7.5,4-11.6c0.6-11.1-6.7-20.5-16.4-21c-1.5-0.1-3,0-4.5,0.4c-0.6-4.7-2-9.2-4.2-13.3
c-4.3-8.1-12.1-13.7-21.1-15.4c0-17.8-8.4-31.4-19-33.9c-6.1-1.4-11.5,1.2-12.6,1.8c-8.8,4.5-12.8,14.4-14.4,21.4
c-11.1,5.9-20.2,20.4-20.1,29.7c-16.7,8.8-27.4,28.6-24.8,48.4c0.5,4.1,1.6,8,3.3,11.7c-1.9,1-3.6,2.4-5.1,4
c-6.1,7-4.2,16.1-4,17.1c-2.1,1.8-3.7,4-4.9,6.5c-2.5,5.5-3.1,14.6,2.6,19.8c5.7,5.2,16,5,23-1.8c0.1,0.8,0.5,6.7,5.3,9.9
c4.8,3.3,11.8,2.6,16.8-1.9c-0.3,11.7,6.5,20.8,14.6,22.2c8.2,1.4,14.8-5.8,16.2-7.4c4-4.7,5.6-10.9,5.5-16.7
c2.2,0.2,4.4,0.2,6.6-0.2c-0.5,6.5,2.6,12.4,7.5,14.7c5.5,2.6,11.2-0.2,12.9-1.1c8.3-4.2,10.3-13.4,10.6-14.8
c6.5,4.1,14,4.1,18.4,0.3c2.1-1.9,3.5-4.4,4-7.2c0.7-4.9-1.7-9.9-6.3-13.1c4.7,0.8,9.5-0.4,13.3-3.4c2.5-2.1,4.3-4.8,5.4-7.8
C547.6,891,547.7,878.1,539.7,868.7" />
</g>
<g id="ad7_00000035513046638867457250000003015849760275774610_" transform="translate(108.195,127.81)">
<path id="ad8_00000164498950396685898010000010752659770509624999_" class="st7"
d="M535.2,892c-0.9,2.7-2.6,5.1-4.8,6.9
c-3.3,2.6-7.6,3.7-11.7,3c4,2.8,6.2,7.3,5.5,11.6c-0.4,2.5-1.6,4.7-3.5,6.4c-3.9,3.3-10.5,3.3-16.3-0.3
c-0.2,1.2-1.9,9.4-9.3,13.1c-1.5,0.8-6.5,3.3-11.4,0.9c-4.3-2.1-7-7.2-6.6-13c-1.9,0.3-3.9,0.4-5.9,0.1
c0.1,5.1-1.4,10.6-4.9,14.7c-1.2,1.5-7,7.8-14.3,6.5c-7.1-1.2-13.1-9.2-12.9-19.5c-4.4,4-10.6,4.5-14.8,1.7
c-4.2-2.9-4.6-8-4.7-8.8c-6.2,6-15.3,6.1-20.3,1.6c-5-4.5-4.4-12.6-2.3-17.4c1-2.2,2.5-4.1,4.3-5.7c-0.2-0.9-1.9-8.9,3.5-15.1
c1.3-1.4,2.8-2.6,4.5-3.5c-1.5-3.3-2.4-6.8-2.9-10.3c-2.3-17.4,7.1-34.9,21.9-42.7c-0.1-8.2,7.9-21,17.7-26.2
c1.4-6.2,5-14.9,12.8-18.9c1-0.5,5.7-2.8,11.1-1.6c9.4,2.1,16.7,14.2,16.8,29.9c7.9,1.5,14.8,6.5,18.6,13.6
c1.9,3.7,3.2,7.6,3.7,11.8c1.3-0.3,2.6-0.4,4-0.4c8.5,0.5,15,8.8,14.4,18.6c-0.2,3.7-1.4,7.2-3.5,10.3c2.7,1.6,5,3.6,7.1,6
C538.1,873.4,538,884.7,535.2,892 M539.7,868.7c-2.3-2.7-5-5-8-6.8c2.4-3.4,3.8-7.5,4-11.6c0.6-11.1-6.7-20.5-16.4-21
c-1.5-0.1-3,0-4.5,0.4c-0.6-4.7-2-9.2-4.2-13.3c-4.3-8.1-12.1-13.7-21.1-15.4c0-17.8-8.4-31.4-19-33.9
c-6.1-1.4-11.5,1.2-12.6,1.8c-8.8,4.5-12.8,14.4-14.4,21.4c-11.1,5.9-20.2,20.4-20.1,29.7c-16.7,8.8-27.4,28.6-24.8,48.4
c0.5,4.1,1.6,8,3.3,11.7c-1.9,1-3.6,2.4-5.1,4c-6.1,7-4.2,16.1-4,17.1c-2.1,1.8-3.7,4-4.9,6.5c-2.5,5.5-3.1,14.6,2.6,19.8
c5.7,5.2,16,5,23-1.8c0.1,0.8,0.5,6.7,5.3,9.9c4.8,3.3,11.8,2.6,16.8-1.9c-0.3,11.7,6.5,20.8,14.6,22.2
c8.2,1.4,14.8-5.8,16.2-7.4c4-4.7,5.6-10.9,5.5-16.7c2.2,0.2,4.4,0.2,6.6-0.2c-0.5,6.5,2.6,12.4,7.5,14.7
c5.5,2.6,11.2-0.2,12.9-1.1c8.3-4.2,10.3-13.4,10.6-14.8c6.5,4.1,14,4.1,18.4,0.3c2.1-1.9,3.5-4.4,4-7.2
c0.7-4.9-1.7-9.9-6.3-13.1c4.7,0.8,9.5-0.4,13.3-3.4c2.5-2.1,4.3-4.8,5.4-7.8C547.6,891,547.7,878.1,539.7,868.7" />
</g>
<g id="ad9_00000182518445224017243980000001298611558776598697_" transform="translate(106.736,127.566)">
<path id="aea_00000126300362018483739430000001814026129779647886_" class="st8" d="M453.6,957c-0.7,0-1.4-0.1-2.1-0.2
c-2.2-0.4-4.2-1.3-6-2.5c-1.9-1.4-3.6-3.1-4.9-5c-1.4-2.1-2.5-4.5-3.2-7c-0.6-2.2-1-4.5-1.1-6.8c-0.9,0.7-2,1.3-3,1.8
c-1.5,0.7-3,1.1-4.7,1.3c-3.1,0.4-6.2-0.4-8.8-2.1c-2.2-1.5-3.8-3.7-4.7-6.3c-0.3-0.9-0.6-1.8-0.7-2.8
c-3.2,2.7-7.2,4.3-11.4,4.6c-2.1,0.1-4.2-0.1-6.3-0.8c-2-0.6-3.8-1.6-5.3-3c-2.7-2.5-4.3-6-4.6-10.3c-0.2-3.6,0.4-7.1,1.8-10.4
c1.1-2.5,2.7-4.7,4.7-6.5c-0.4-2-0.5-4-0.3-6.1c0.1-1.9,0.5-3.7,1.2-5.5c0.8-2.1,1.9-4,3.4-5.7c1.3-1.5,2.9-2.8,4.7-3.8
c-1.5-3.6-2.6-7.4-3.1-11.3c-0.6-5-0.5-10,0.4-14.9c1.8-9.7,6.5-18.6,13.3-25.6c3.2-3.4,7-6.2,11.1-8.4
c0.1-4.6,2.2-10.4,6-16.1c1.9-2.9,4.1-5.5,6.5-7.9c2.3-2.3,4.9-4.2,7.7-5.8c0.9-4,2.5-7.9,4.6-11.5c2.4-4.2,5.9-7.7,10.2-10
c1.5-0.7,3-1.3,4.6-1.7c2.8-0.7,5.7-0.8,8.5-0.2c2.9,0.7,5.5,2.1,7.8,4c2.5,2.1,4.6,4.7,6.2,7.6c1.8,3.3,3.2,6.8,4.1,10.4
c1,3.9,1.5,8,1.5,12.1c9,1.8,16.7,7.5,21,15.6c2.1,4,3.5,8.3,4.2,12.8c3.7-0.7,7.6-0.1,11,1.8c2.2,1.2,4,2.8,5.6,4.8
c1.6,2,2.8,4.4,3.5,6.8c0.8,2.6,1.1,5.4,1,8.1c-0.2,4-1.5,8-3.7,11.4c2.8,1.8,5.3,4,7.5,6.5c0.5,0.6,1,1.2,1.5,1.8l-1.2,0.9
c-0.4-0.6-0.9-1.2-1.4-1.7c-2.2-2.6-4.9-4.9-7.8-6.6l-0.7-0.4l0.5-0.7c2.3-3.3,3.7-7.2,3.9-11.2c0.1-2.6-0.2-5.2-0.9-7.6
c-0.7-2.3-1.8-4.4-3.3-6.3c-1.4-1.8-3.1-3.3-5.1-4.4c-3.2-1.8-7.1-2.3-10.7-1.5l-0.8,0.2l-0.1-0.8c-0.6-4.6-2-9-4.1-13.1
c-2.7-5.2-7-9.4-12.1-12.1c-2.6-1.4-5.5-2.4-8.4-2.9l-0.6-0.1l0-0.6c0-4.1-0.5-8.2-1.5-12.3c-0.9-3.5-2.2-6.9-4-10.1
c-3.4-5.8-8-9.7-13-10.8c-2.6-0.6-5.3-0.5-7.8,0.1c-1.5,0.4-2.9,0.9-4.3,1.6c-4,2.2-7.4,5.4-9.6,9.5c-2,3.6-3.5,7.4-4.5,11.4
l-0.1,0.3l-0.3,0.2c-2.8,1.5-5.4,3.5-7.7,5.7c-2.4,2.3-4.5,4.9-6.3,7.6c-1.7,2.6-3.1,5.3-4.2,8.2c-0.9,2.4-1.4,4.9-1.5,7.5
l0,0.5l-0.4,0.2c-4.1,2.2-7.9,5-11.1,8.3c-6.6,6.9-11.1,15.5-12.9,24.9c-0.9,4.8-1.1,9.6-0.4,14.4c0.5,4,1.6,7.9,3.2,11.5
l0.3,0.6l-0.6,0.3c-1.8,1-3.5,2.3-4.9,3.8c-1.3,1.5-2.4,3.3-3.1,5.2c-0.6,1.6-1,3.4-1.1,5.1c-0.2,2,0,4.1,0.4,6.1l0.1,0.4
l-0.3,0.3c-2,1.7-3.6,3.8-4.7,6.2c-1.3,3-1.9,6.3-1.7,9.7c0.2,2.7,1,6.5,4.1,9.2c1.4,1.2,3,2.1,4.7,2.7
c1.8,0.6,3.8,0.8,5.7,0.7c4.3-0.3,8.4-2.1,11.6-5.1l1.2-1.1l0.1,1.6c0.1,1.3,0.4,2.6,0.8,3.8c0.8,2.2,2.2,4.2,4.1,5.5
c2.3,1.5,5.1,2.2,7.8,1.9c1.5-0.2,2.9-0.5,4.2-1.1c1.4-0.6,2.7-1.5,3.9-2.5l1.3-1.2l0,1.7c-0.1,2.7,0.3,5.4,1,8
c0.7,2.3,1.7,4.5,3,6.5c1.2,1.8,2.7,3.3,4.5,4.6c1.6,1.2,3.5,1.9,5.4,2.3c3.3,0.6,6.7-0.2,10.1-2.4c2-1.3,3.8-2.9,5.3-4.7
c1.9-2.2,3.3-4.9,4.1-7.7c0.9-2.8,1.3-5.6,1.2-8.5l0-0.9l0.9,0.1c2.1,0.2,4.3,0.2,6.4-0.2l0.9-0.1l-0.1,0.9
c-0.2,2.9,0.3,5.9,1.6,8.5c1.2,2.4,3,4.3,5.4,5.5c2.3,1.1,4.9,1.3,7.4,0.7c1.7-0.4,3.3-1,4.8-1.8c1.9-0.9,3.5-2.2,4.9-3.7
c1.2-1.3,2.3-2.8,3.1-4.4c1-1.9,1.7-4,2.2-6.2l0.2-1.1l0.9,0.6c2.9,1.8,6.2,2.9,9.6,3c1.5,0,3-0.2,4.4-0.6
c1.3-0.4,2.5-1.1,3.6-2c2-1.8,3.3-4.1,3.7-6.8c0.3-2.3-0.1-4.7-1.1-6.8c-1.1-2.3-2.8-4.2-4.9-5.6l-2.7-1.8l3.2,0.5
c2.3,0.4,4.6,0.3,6.9-0.3c2.1-0.5,4.1-1.5,5.8-2.9c2.4-2,4.2-4.6,5.2-7.5l1.4,0.6c-1.1,3.2-3,6-5.6,8.2
c-1.9,1.5-4.1,2.6-6.4,3.2c-1.6,0.4-3.3,0.6-5,0.6c1.4,1.3,2.6,2.9,3.4,4.6c1.2,2.4,1.6,5,1.2,7.6c-0.2,1-0.4,2-0.8,3
c-1.3,3.3-4.1,5.9-7.5,7c-1.6,0.5-3.2,0.7-4.8,0.7c-3.3-0.1-6.6-1-9.5-2.7c-0.5,1.9-1.2,3.8-2.1,5.5c-0.9,1.7-2,3.3-3.3,4.7
c-1.5,1.7-3.3,3-5.3,4c-1.6,0.9-3.4,1.5-5.2,1.9c-2.8,0.7-5.7,0.4-8.3-0.8c-2.7-1.3-4.8-3.5-6.1-6.1c-1.3-2.6-1.9-5.5-1.8-8.4
c-1.7,0.2-3.4,0.2-5.1,0.1c0,2.8-0.4,5.5-1.3,8.2c-0.9,3-2.4,5.8-4.4,8.2c-1.6,1.9-3.6,3.6-5.7,5c-1.6,1-3.3,1.8-5.1,2.3
C456.4,956.9,455,957.1,453.6,957z" />
</g>
</g>
</g>
<g>
<rect x="377" y="727.5" class="st4" width="146.1" height="308.2" />
<path class="st3" d="M617.5,1035.5h-94.4v-307c0-0.4,0.5-0.7,0.8-0.4l92.9,58L617.5,1035.5z" />
<line class="st2" x1="523.1" y1="912" x2="617.5" y2="948.9" />
<polygon class="st4" points="533.1,1035.7 533.1,932.5 567.9,944.6 567.9,1035.5             " />
<polygon class="st2" points="586.4,978.3 573.2,975.7 573.6,946.7 586.8,951.5             " />
<polygon class="st2" points="605.1,981.4 591.9,978.8 592.3,953.3 605.5,958.2             " />
<line class="st4" x1="523.1" y1="754.4" x2="480.5" y2="755" />
<line class="st4" x1="523.1" y1="790.6" x2="495" y2="790.6" />
<polygon class="st2" points="563.3,911.5 536.9,900.9 537.8,842.9 564.2,855.3             " />
<polygon class="st2" points="604.7,929 578.3,916.7 579.1,863.1 605.5,878.1             " />
<polygon class="st2" points="549.1,798.1 533.1,791.8 533.6,756.8 549.6,764.3             " />
<polygon class="st2" points="574,808.7 558.1,801.3 558.6,768.9 574.5,778             " />
</g>
</g>
</g>
<g id="Layer02">
<g id="l2hl_00000098180786293169773290000005328265761884786829_">
<g>
<path class="st9" d="M-25,523.7h78.5v-10.3h-72.3c-3.4,0-6.2,2.8-6.2,6.2V523.7z" />
<rect x="188.7" y="513.1" class="st9" width="71.9" height="10.3" />
<polygon class="st10" points="188.7,521.9 188.7,494.2 54.8,494.2 54.8,521.9 -24.9,521.9 -24.9,611.9 260.6,611.9 260.6,521.9
" />
<g>
<g>
<polygon class="st11" points="187.6,517.3 187.6,495.3 53.6,495.2                     " />
</g>
</g>
<path class="st9" d="M49.5,495.2h143.8v-6c0-2.4-1.9-4.3-4.3-4.3H52.8c-1.8,0-3.3,1.5-3.3,3.3V495.2z" />
<g>
<g>
<path class="st9" d="M138.5,522.8h8.9c1.7,0,3.1-1.4,3.1-3.1v-8.9h-12V522.8z" />
</g>
</g>
<g>
<g>
<rect x="69.2" y="512.9" class="st9" width="10" height="10" />
</g>
</g>
<g>
<g>
<path class="st9" d="M167.5,522.8h8.4c1,0,1.8-0.8,1.8-1.8v-8.4c0-1-0.8-1.8-1.8-1.8h-8.4c-1,0-1.8,0.8-1.8,1.8v8.4
C165.7,522,166.5,522.8,167.5,522.8z" />
</g>
</g>
<g>
<g>
<rect x="96.4" y="512.9" class="st9" width="10" height="10" />
</g>
</g>
</g>
<polygon class="st12" points="328.7,989.1 -98.5,999 -105.1,576.7 328.7,576.7         " />
<polygon class="st10" points="328.7,576.7 453.1,655.3 455.4,1013.8 330.2,1013.8         " />
<g>
<g>
<g>
<rect x="249" y="692.3" class="st13" width="36.8" height="12.5" />
</g>
</g>
<g>
<g>
<rect x="248.9" y="633.4" class="st14" width="36.8" height="59.5" />
</g>
</g>
<g>
<g>
<rect x="251.1" y="635.5" class="st6" width="32.4" height="55" />
</g>
</g>
<g>
<g>
<rect x="250.1" y="651.3" class="st14" width="33.4" height="2.1" />
</g>
</g>
<g class="st15">
<g>
<polygon class="st16" points="251.1,651.3 268.8,651.3 276.3,635.5 251.1,635.5                     " />
</g>
</g>
<g class="st15">
<g>
<path class="st16" d="M251,690.4l17-37c0,0-9.8-0.1-16.9-0.1L251,690.4z" />
</g>
</g>
</g>
<g>
<g>
<g>
<rect x="191.9" y="692.3" class="st13" width="36.8" height="12.5" />
</g>
</g>
<g>
<g>
<rect x="191.9" y="633.4" class="st14" width="36.8" height="59.5" />
</g>
</g>
<g>
<g>
<rect x="194" y="635.5" class="st6" width="32.4" height="55" />
</g>
</g>
<g>
<g>
<rect x="193.1" y="651.3" class="st14" width="33.4" height="2.1" />
</g>
</g>
<g class="st15">
<g>
<polygon class="st16" points="194,651.3 211.8,651.3 219.2,635.5 194,635.5                     " />
</g>
</g>
<g class="st15">
<g>
<path class="st16" d="M193.9,690.4l17-37c0,0-9.8-0.1-16.9-0.1L193.9,690.4z" />
</g>
</g>
</g>
<g>
<g>
<g>
<rect x="95.2" y="692.3" class="st13" width="36.8" height="12.5" />
</g>
</g>
<g>
<g>
<rect x="95.2" y="633.4" class="st14" width="36.8" height="59.5" />
</g>
</g>
<g>
<g>
<rect x="97.4" y="635.5" class="st6" width="32.4" height="55" />
</g>
</g>
<g>
<g>
<rect x="96.4" y="651.3" class="st14" width="33.4" height="2.1" />
</g>
</g>
<g class="st15">
<g>
<polygon class="st16" points="97.4,651.3 115.1,651.3 122.6,635.5 97.4,635.5                     " />
</g>
</g>
<g class="st15">
<g>
<path class="st16" d="M97.3,690.4l17-37c0,0-9.8-0.1-16.9-0.1L97.3,690.4z" />
</g>
</g>
</g>
<g>
<g>
<g>
<rect x="-76.9" y="692.3" class="st13" width="36.8" height="12.5" />
</g>
</g>
<g>
<g>
<rect x="-76.9" y="633.4" class="st14" width="36.8" height="59.5" />
</g>
</g>
<g>
<g>
<rect x="-74.7" y="635.5" class="st6" width="32.4" height="55" />
</g>
</g>
<g>
<g>
<rect x="-75.7" y="651.3" class="st14" width="33.4" height="2.1" />
</g>
</g>
<g class="st15">
<g>
<polygon class="st16" points="-74.7,651.3 -57,651.3 -49.5,635.5 -74.7,635.5                     " />
</g>
</g>
<g class="st15">
<g>
<path class="st16" d="M-74.8,690.4l17-37c0,0-9.8-0.1-16.9-0.1L-74.8,690.4z" />
</g>
</g>
</g>
<polygon class="st17" points="373.2,714.5 346.8,702.2 347.6,644.1 374,659.2         " />
<polygon class="st17" points="434.5,742 408.1,729.7 408.9,671.7 435.3,686.8         " />
<polyline class="st18" points="-104.9,595 328.7,595 453.2,668.6         " />
<polyline class="st18" points="308.4,576.7 308.4,576.7 260.6,543 -25,545.4         " />
<polyline class="st18" points="260.6,513.1 318.7,559.4 318.7,576.7         " />
<line class="st18" x1="318.7" y1="567.6" x2="260.6" y2="521.9" />
</g>
<g id="l2hr_00000056395161345390978810000000051882763137478324_">
<path class="st12" d="M2225.2,984.7h-467.4c-3,0-5.4-2.4-5.4-5.4V572.7c0-3,2.4-5.4,5.4-5.4h467.4c3,0,5.4,2.4,5.4,5.4v406.6
C2230.6,982.3,2228.2,984.7,2225.2,984.7z" />
<polygon class="st10" points="1754.1,568.3 1674.6,651.6 1682.7,1000 1761.3,1022.9         " />
<rect x="1785.5" y="602.4" class="st17" width="36.3" height="56" />
<rect x="1838" y="602.4" class="st17" width="36.3" height="56" />
<rect x="1941.8" y="602.4" class="st17" width="36.3" height="56" />
<rect x="2083.1" y="602.4" class="st17" width="36.3" height="56" />
<rect x="2133.6" y="602.4" class="st17" width="36.3" height="56" />
<g>
<path class="st19" d="M2124.6,535.7c0,0-0.1-0.3,0-0.3c0.1,0-10,8.7-14.5,12.5c-1.3,1.1-2.1,2.8-2.1,4.5l-0.2,14h17.1
L2124.6,535.7z" />
<path class="st20"
d="M2149.3,566.5c14.3,0-23.6-1.1-23.6-1.1v-29.6h18.1C2143.7,535.9,2135,566.5,2149.3,566.5z" />
<path class="st18" d="M2179.5,535.4h-54.6v31.4h59.2V540C2184.1,537.4,2182,535.4,2179.5,535.4z" />
</g>
<polygon class="st18" points="1697.1,863.4 1708.8,856.7 1708.8,898.4 1697.1,906         " />
<polygon class="st18" points="1716.2,851.1 1732.9,840.9 1732.9,886 1717.1,895.5         " />
<rect x="1830.6" y="519.5" class="st10" width="176.3" height="47" />
<polygon class="st10" points="1789.9,566.8 1830.6,566.8 1830.6,519.5 1789.9,551.5         " />
<line class="st18" x1="1952.6" y1="519.5" x2="1952.6" y2="554.8" />
<g>
<path class="st19" d="M1872.4,536.1c0,0-0.1-0.3,0-0.3c0.1,0-10,8.7-14.5,12.5c-1.3,1.1-2.1,2.8-2.1,4.5l-0.2,14h17.1
L1872.4,536.1z" />
<path class="st20" d="M1897,567c14.3,0-23.6-1.1-23.6-1.1v-29.6h18.1C1891.5,536.3,1882.7,567,1897,567z" />
<path class="st18" d="M1927.3,535.8h-54.6v31.4h59.2v-26.8C1931.8,537.9,1929.8,535.8,1927.3,535.8z" />
</g>
<polygon class="st7" points="1684.4,675.8 1685.7,741.5 1748,694.4 1745.9,596.1 1684.4,662.8         " />
<polygon class="st18" points="1698.4,674.6 1711.1,660.2 1712.3,710.4 1698.4,721.3         " />
<polygon class="st18" points="1718.7,654.1 1732.7,637.4 1733.9,692.7 1718.7,704.9         " />
<polygon class="st7" points="1684.4,788.3 1685.5,844 1748,806.9 1748,703.8 1684.4,753         " />
<polygon class="st18" points="1700.6,762.4 1712.3,752.7 1712.3,796.1 1700.6,803.6         " />
<polygon class="st18" points="1719.7,747 1736.4,733.3 1736.4,781.2 1720.6,791.5         " />
</g>
</g>
<g id="Layer01">

<linearGradient id="SVGID_00000164509980845603980620000007618721738988342926_" gradientUnits="userSpaceOnUse"
x1="5.727512e-03" y1="1065.9526" x2="2214" y2="1065.9526">
<stop offset="0" style="stop-color:#F7F6F6" />
<stop offset="0.215" style="stop-color:#F7F6F6" />
<stop offset="0.43" style="stop-color:#F7F6F6" />
<stop offset="0.715" style="stop-color:#FBFAFA" />
<stop offset="1" style="stop-color:#FFFFFF" />
</linearGradient>

<rect x="0" y="1030.8" style="fill:url(#SVGID_00000164509980845603980620000007618721738988342926_);"
width="2214" height="70.3" />
<g>
<g id="ad5_00000019677932747504673110000000934079746931809436_" transform="translate(108.195,127.81)">
<path id="ad6_00000007427391031661039180000011734310274424745869_" class="st6" d="M2218.4,518.1c-2.6-3.1-5.8-5.8-9.3-7.9
c2.8-4,4.4-8.6,4.7-13.5c0.7-12.8-7.8-23.7-19-24.3c-1.8-0.1-3.5,0.1-5.2,0.5c-0.7-5.4-2.3-10.6-4.9-15.4
c-5-9.3-14-15.9-24.4-17.8c-0.1-20.5-9.7-36.4-22-39.2c-7-1.6-13.3,1.4-14.6,2.1c-10.1,5.2-14.8,16.7-16.7,24.8
c-12.9,6.9-23.4,23.6-23.3,34.4c-19.3,10.2-31.7,33.1-28.7,56c0.6,4.7,1.9,9.3,3.8,13.6c-2.2,1.2-4.2,2.7-5.9,4.6
c-7.1,8.1-4.8,18.6-4.6,19.8c-2.4,2.1-4.3,4.6-5.6,7.5c-2.8,6.4-3.6,16.9,3,22.9c6.6,6,18.5,5.7,26.6-2.1c0.1,1,0.6,7.7,6.1,11.5
s13.6,3,19.5-2.2c-0.3,13.5,7.5,24,16.9,25.6c9.5,1.7,17.1-6.7,18.7-8.5c4.6-5.4,6.5-12.6,6.4-19.3c2.6,0.3,5.1,0.2,7.7-0.2
c-0.5,7.6,2.9,14.3,8.6,17c6.4,3,12.9-0.2,14.9-1.2c9.6-4.8,11.9-15.5,12.2-17.2c7.5,4.7,16.2,4.7,21.3,0.4
c2.5-2.2,4.1-5.1,4.6-8.4c0.8-5.6-2-11.5-7.3-15.2c5.4,0.9,11-0.5,15.4-3.9c2.9-2.4,5-5.5,6.2-9.1
C2227.5,543.8,2227.6,529,2218.4,518.1" />
</g>
<g id="ad7_00000070838584511367969110000012590930424599547054_" transform="translate(108.195,127.81)">
<path id="ad8_00000145750251233423030830000009523639016682141885_" class="st22" d="M2213.2,545c-1.1,3.1-3,5.9-5.5,8
c-3.8,3-8.7,4.3-13.5,3.4c4.7,3.3,7.1,8.4,6.4,13.4c-0.5,2.9-1.9,5.5-4.1,7.4c-4.6,3.8-12.2,3.8-18.8-0.3
c-0.3,1.4-2.2,10.9-10.8,15.1c-1.8,0.9-7.5,3.8-13.1,1.1c-5-2.4-8.1-8.3-7.6-15c-2.2,0.4-4.5,0.4-6.8,0.2
c0.1,5.9-1.6,12.3-5.6,17c-1.4,1.7-8.1,9-16.5,7.5c-8.2-1.4-15.1-10.7-14.9-22.6c-5.1,4.6-12.3,5.3-17.1,1.9
c-4.8-3.3-5.3-9.3-5.4-10.1c-7.2,6.9-17.7,7.1-23.5,1.8s-5.1-14.5-2.6-20.1c1.1-2.5,2.8-4.8,4.9-6.6c-0.2-1-2.2-10.3,4-17.4
c1.5-1.7,3.2-3,5.2-4.1c-1.7-3.8-2.8-7.8-3.3-12c-2.6-20.2,8.3-40.4,25.3-49.4c-0.1-9.5,9.2-24.2,20.5-30.3
c1.7-7.2,5.8-17.2,14.8-21.8c1.1-0.6,6.6-3.2,12.9-1.8c10.8,2.5,19.4,16.4,19.4,34.5c9.2,1.7,17.1,7.5,21.5,15.7
c2.2,4.2,3.7,8.8,4.3,13.6c1.5-0.4,3-0.5,4.6-0.4c9.9,0.5,17.3,10.2,16.7,21.5c-0.2,4.3-1.6,8.4-4.1,11.9
c3.1,1.8,5.8,4.2,8.2,6.9C2216.5,523.5,2216.4,536.6,2213.2,545 M2218.4,518.1c-2.6-3.1-5.8-5.8-9.3-7.9c2.8-4,4.4-8.6,4.7-13.5
c0.7-12.8-7.8-23.7-19-24.3c-1.8-0.1-3.5,0.1-5.2,0.5c-0.7-5.4-2.3-10.6-4.9-15.4c-5-9.3-14-15.9-24.4-17.8
c-0.1-20.5-9.7-36.4-22-39.2c-7-1.6-13.3,1.4-14.6,2.1c-10.1,5.2-14.8,16.7-16.7,24.8c-12.9,6.9-23.4,23.6-23.3,34.4
c-19.3,10.2-31.7,33.1-28.7,56c0.6,4.7,1.9,9.3,3.8,13.6c-2.2,1.2-4.2,2.7-5.9,4.6c-7.1,8.1-4.8,18.6-4.6,19.8
c-2.4,2.1-4.3,4.6-5.6,7.5c-2.8,6.4-3.6,16.9,3,22.9c6.6,6,18.5,5.7,26.6-2.1c0.1,1,0.6,7.7,6.1,11.5s13.6,3,19.5-2.2
c-0.3,13.5,7.5,24,16.9,25.6c9.5,1.7,17.1-6.7,18.7-8.5c4.6-5.4,6.5-12.6,6.4-19.3c2.6,0.3,5.1,0.2,7.7-0.2
c-0.5,7.6,2.9,14.3,8.6,17c6.4,3,12.9-0.2,14.9-1.2c9.6-4.8,11.9-15.5,12.2-17.2c7.5,4.7,16.2,4.7,21.3,0.4
c2.5-2.2,4.1-5.1,4.6-8.4c0.8-5.6-2-11.5-7.3-15.2c5.4,0.9,11-0.5,15.4-3.9c2.9-2.4,5-5.5,6.2-9.1
C2227.5,543.8,2227.6,529,2218.4,518.1" />
</g>
<g id="ad9_00000109031321924937083520000007729135866977864084_" transform="translate(106.736,127.566)">
<path id="aea_00000043446601201288867420000013416195122321941153_" class="st14" d="M2118.6,620.2c-0.8,0-1.6-0.1-2.4-0.2
c-2.5-0.5-4.9-1.5-7-2.9c-2.2-1.6-4.1-3.5-5.6-5.8c-1.7-2.5-2.9-5.2-3.7-8c-0.7-2.6-1.1-5.2-1.2-7.9c-1.1,0.8-2.3,1.5-3.5,2.1
c-1.7,0.8-3.5,1.3-5.4,1.5c-3.6,0.4-7.2-0.4-10.2-2.4c-2.5-1.8-4.4-4.3-5.4-7.2c-0.4-1.1-0.6-2.1-0.8-3.2
c-3.7,3.1-8.4,5-13.2,5.3c-2.5,0.2-4.9-0.1-7.3-0.9c-2.3-0.7-4.4-1.9-6.1-3.5c-3.1-2.9-5-7-5.3-11.9c-0.2-4.1,0.5-8.2,2.1-12
c1.3-2.9,3.2-5.4,5.5-7.5c-0.4-2.3-0.6-4.7-0.4-7c0.2-2.2,0.6-4.3,1.4-6.4c0.9-2.4,2.2-4.7,3.9-6.6c1.5-1.8,3.4-3.3,5.4-4.4
c-1.8-4.2-3-8.6-3.5-13.1c-0.7-5.7-0.6-11.6,0.5-17.2c2.1-11.2,7.5-21.5,15.4-29.6c3.8-3.9,8.1-7.2,12.8-9.7
c0.1-5.3,2.6-12.1,6.9-18.6c2.2-3.3,4.7-6.4,7.5-9.1c2.7-2.6,5.7-4.9,8.9-6.7c1.1-4.7,2.9-9.2,5.3-13.3
c2.7-4.9,6.9-8.9,11.8-11.6c1.7-0.9,3.5-1.5,5.3-2c3.2-0.8,6.6-0.9,9.9-0.2c3.3,0.8,6.4,2.4,9,4.6c2.9,2.5,5.3,5.4,7.2,8.8
c2.1,3.8,3.7,7.8,4.8,12c1.1,4.6,1.7,9.2,1.7,13.9c10.4,2.1,19.3,8.7,24.3,18.1c2.4,4.6,4.1,9.6,4.8,14.8
c4.3-0.8,8.8-0.1,12.7,2.1c2.5,1.4,4.7,3.3,6.4,5.6c1.8,2.4,3.2,5,4.1,7.9c0.9,3.1,1.3,6.2,1.1,9.4c-0.2,4.7-1.7,9.2-4.3,13.1
c3.3,2.1,6.2,4.6,8.7,7.6c0.6,0.7,1.1,1.4,1.7,2.1l-1.4,1c-0.5-0.7-1-1.4-1.6-2c-2.6-3-5.6-5.6-9-7.7l-0.9-0.5l0.6-0.8
c2.7-3.8,4.3-8.3,4.5-13c0.2-3-0.2-6-1-8.8c-0.8-2.7-2.1-5.1-3.8-7.3c-1.6-2.1-3.6-3.8-5.9-5.1c-3.8-2.1-8.2-2.7-12.3-1.7
l-0.9,0.2l-0.1-1c-0.7-5.3-2.3-10.4-4.8-15.1c-3.2-6-8.1-10.8-14-14c-3-1.6-6.3-2.8-9.7-3.4l-0.7-0.1l0-0.7
c0-4.8-0.6-9.5-1.7-14.2c-1-4.1-2.5-8-4.6-11.6c-3.9-6.8-9.2-11.2-15-12.5c-3-0.7-6.1-0.6-9,0.2c-1.7,0.4-3.4,1-5,1.8
c-4.7,2.5-8.5,6.3-11.1,10.9c-2.4,4.1-4.1,8.6-5.2,13.2l-0.1,0.4l-0.4,0.2c-3.3,1.8-6.3,4-8.9,6.6c-2.7,2.7-5.2,5.6-7.3,8.8
c-2,3-3.6,6.1-4.9,9.5c-1.1,2.8-1.7,5.7-1.7,8.7l0,0.5l-0.5,0.3c-4.8,2.5-9.1,5.8-12.8,9.7c-7.7,7.9-12.8,17.9-14.9,28.7
c-1.1,5.5-1.2,11.1-0.5,16.7c0.6,4.6,1.8,9.1,3.7,13.3l0.3,0.7l-0.7,0.4c-2.1,1.1-4,2.6-5.6,4.4c-1.6,1.8-2.8,3.8-3.6,6
c-0.7,1.9-1.1,3.9-1.3,5.9c-0.2,2.3,0,4.7,0.5,7l0.1,0.5l-0.4,0.3c-2.3,2-4.1,4.4-5.4,7.2c-1.5,3.5-2.2,7.3-2,11.2
c0.2,3.1,1.2,7.5,4.8,10.7c1.6,1.4,3.4,2.5,5.5,3.1c2.1,0.7,4.4,1,6.6,0.8c5-0.3,9.8-2.4,13.4-6l1.3-1.3l0.1,1.9
c0.1,1.5,0.4,3,1,4.5c0.9,2.6,2.6,4.8,4.8,6.4c2.7,1.8,5.9,2.6,9,2.2c1.7-0.2,3.3-0.6,4.9-1.3c1.6-0.7,3.2-1.7,4.5-2.9l1.5-1.3
l0,2c-0.1,3.1,0.3,6.2,1.2,9.2c0.8,2.7,1.9,5.2,3.5,7.5c1.4,2.1,3.2,3.9,5.2,5.3c1.9,1.3,4,2.2,6.3,2.6c3.8,0.7,7.8-0.3,11.7-2.8
c2.3-1.5,4.4-3.3,6.2-5.4c2.2-2.6,3.8-5.6,4.8-8.9c1-3.2,1.5-6.5,1.4-9.9l0-1l1,0.1c2.5,0.3,5,0.2,7.5-0.2l1.1-0.2l-0.1,1.1
c-0.3,3.4,0.4,6.8,1.9,9.9c1.3,2.7,3.5,4.9,6.2,6.3c2.7,1.2,5.7,1.5,8.5,0.8c2-0.4,3.8-1.1,5.6-2.1c2.1-1.1,4.1-2.5,5.7-4.3
c1.4-1.5,2.6-3.3,3.6-5.1c1.2-2.3,2-4.7,2.5-7.1l0.2-1.2l1.1,0.7c3.3,2.1,7.2,3.3,11.1,3.4c1.7,0,3.4-0.2,5-0.7
c1.5-0.5,2.9-1.3,4.2-2.3c2.3-2,3.8-4.8,4.3-7.8c0.4-2.7-0.1-5.4-1.3-7.8c-1.3-2.6-3.2-4.9-5.6-6.5l-3.2-2.1l3.8,0.6
c2.6,0.4,5.3,0.3,7.9-0.3c2.5-0.6,4.8-1.8,6.8-3.4c2.8-2.3,4.8-5.3,6-8.7l1.6,0.6c-1.3,3.7-3.5,7-6.5,9.4c-2.2,1.7-4.7,3-7.4,3.7
c-1.9,0.5-3.8,0.7-5.7,0.7c1.6,1.5,3,3.3,3.9,5.3c1.3,2.7,1.8,5.8,1.4,8.8c-0.2,1.2-0.5,2.4-1,3.5c-1.5,3.9-4.7,6.8-8.7,8.1
c-1.8,0.6-3.7,0.8-5.6,0.8c-3.8-0.1-7.6-1.2-10.9-3.1c-0.6,2.2-1.4,4.4-2.4,6.4c-1,2-2.3,3.8-3.8,5.5c-1.8,1.9-3.8,3.5-6.2,4.7
c-1.9,1-3.9,1.7-6,2.2c-3.2,0.8-6.6,0.4-9.6-1c-3.1-1.5-5.5-4-7-7.1c-1.5-3-2.2-6.3-2.1-9.7c-2,0.2-3.9,0.3-5.9,0.1
c0,3.2-0.5,6.4-1.5,9.4c-1.1,3.5-2.8,6.7-5.1,9.5c-1.9,2.2-4.1,4.2-6.6,5.8c-1.8,1.2-3.8,2.1-5.8,2.7
C2121.8,620.1,2120.2,620.3,2118.6,620.2z" />
</g>
</g>
<g>
<polygon class="st23" points="362.1,756.1 362.1,841.2 304.2,876.6 304.2,756.1         " />
<polygon class="st23"
points="525.5,890.8 537.5,891.5 482.6,770.1 458.5,876.6 458.5,1036.8 525.4,1036.8         " />
<polygon class="st24" points="210.8,682.1 304.2,756.1 304.2,1036.8 10.3,1036.8 10.3,773.2         " />
<polygon class="st22" points="325.2,713.1 205,665.8 304.2,747.1 373.8,747.2         " />
<polygon class="st22" points="304.2,819 471.4,819.4 482.6,764 350.9,764         " />
<polygon class="st13" points="210.8,682.1 10.3,773.2 -10.1,773.2 201.8,675         " />
<polygon class="st6" points="205,665.8 304.2,747.1 304.2,756.1 201.8,675 -10.1,773.2 -10.1,764.6         " />

<rect x="304.2" y="747.1" transform="matrix(-1 -4.491664e-11 4.491664e-11 -1 677.9968 1503.1033)"
class="st6" width="69.6" height="9" />
<polygon class="st23" points="-13,888.6 258.3,888.6 258.3,866.4 10.3,866.4         " />

<rect x="-13" y="888.6" transform="matrix(-1 -4.490287e-11 4.490287e-11 -1 245.2926 1784.468)" class="st24"
width="271.2" height="7.3" />
<rect x="250.7" y="885" class="st24" width="207.8" height="151.8" />

<rect x="246.8" y="876.6" transform="matrix(-1 -5.632262e-11 5.632262e-11 -1 705.3339 1761.5719)"
class="st24" width="211.7" height="8.4" />
<polygon class="st13" points="470.3,819.4 288.3,819 245.6,876.6 457.3,876.6         " />
<g>

<rect x="197" y="754.5" transform="matrix(-1 -4.494106e-11 4.494106e-11 -1 443.9505 1589.5311)"
class="st22" width="49.9" height="80.5" />
<path class="st14" d="M201.6,827.7h18l0,0h1.5l0,0h21.3v-65.8h-40.8V827.7z M203.9,764h15.7v15.7h-15.7V764z M219.5,804.8h-15.7
v-23.7h15.7V804.8z M240.1,764v15.7h-19V764H240.1z M240.1,804.8h-19v-23.7h19V804.8z M221.1,825.5v-19.4h19v19.4H221.1z
M203.9,825.5v-19.4h15.7v19.4H203.9z" />
</g>
<g>

<rect x="84.9" y="754.5" transform="matrix(-1 -4.490465e-11 4.490465e-11 -1 219.6321 1589.5311)"
class="st22" width="49.9" height="80.5" />
<path class="st14" d="M89.4,827.7h18l0,0h1.5l0,0h21.3v-65.8H89.4V827.7z M91.7,764h15.7v15.7H91.7V764z M107.4,804.8H91.7v-23.7
h15.7V804.8z M127.9,764v15.7h-19V764H127.9z M127.9,804.8h-19v-23.7h19V804.8z M108.9,825.5v-19.4h19v19.4H108.9z M91.7,825.5
v-19.4h15.7v19.4H91.7z" />
</g>
<path class="st25" d="M210.8,682.1l-9-7.1c0,0-212.9,96.8-212.9,98.2s20.5,0,20.5,0L210.8,682.1z" />
<polyline class="st25"
points="362.1,756.1 373.8,756.1 373.8,747.1 325.2,713.1 205,665.8 -10.1,764.6 -10.1,773.2         " />
<polyline class="st25" points="373.8,747.1 304.2,747.1 205,665.8         " />
<polyline class="st25" points="210.8,682.1 304.2,757.5 363.8,756.1         " />
<polygon class="st25" points="525.5,891.3 539.8,891.3 482.6,764 369,764 350.9,764 304.2,819 285.5,820.1 243.7,876.6
458.5,876.6 477.7,791.6         " />
</g>
<g>
<polygon class="st26" points="2301.6,844.5 2358,822.7 2301.6,822.7         " />
<rect x="1965.1" y="562.2" class="st6" width="42.3" height="87.9" />
<path class="st13"
d="M1965.1,568.7c9.8,1.2,22,3.5,26.4,7.8c5.9,5.9,2.8,52.1,1,73.6h14.9v-87.9h-42.3V568.7z" />
<rect x="1951.5" y="562.2" class="st13" width="13.6" height="87.9" />
<polygon class="st13" points="1778.6,656.9 1753.6,757 1754.1,1024.2 1806.5,1024.2 1808.1,722.6         " />
<rect x="2151" y="822.7" class="st6" width="161.2" height="201.6" />
<polygon class="st22" points="2080.4,697.7 2151,822.7 2151,1024.2 2085.5,1024.2 2080.4,852.1         " />
<polygon class="st13"
points="2087,855.9 2151.7,915.5 2151.6,927.7 2138.6,926.4 2139.8,1024.5 2092,1024.5         " />
<polygon class="st13"
points="1774.7,628.3 1805.8,709.2 2080.9,709.2 2151,803.3 2354.9,803.3 2129.1,650.4         " />
<path class="st22" d="M2080.9,709.2L2080.9,709.2l70.1,94.1h165.3c0,0-123.3-74-171.5-89.6
C2096.6,698.1,2080.9,709.2,2080.9,709.2z" />
<rect x="2151" y="803.3" class="st6" width="207" height="19.3" />
<rect x="1825.2" y="891.3" class="st7" width="212.7" height="133.2" />
<polygon class="st13" points="1835.1,893.1 2029.1,893.1 2029.1,1024 2021.7,902.5         " />
<g id="door">

<rect x="1864.8" y="858.4" transform="matrix(-1.836970e-16 1 -1 -1.836970e-16 2888.8162 -972.9174)"
class="st24" width="132.2" height="199" />
<rect x="1845.9" y="1014.8" class="st13" width="178.4" height="2.2" />
<rect x="1845.9" y="1007.5" class="st13" width="178.4" height="2.2" />
<rect x="1845.9" y="1000.7" class="st13" width="178.4" height="1.5" />
<rect x="1845.9" y="993.4" class="st13" width="178.4" height="1.5" />
<rect x="1845.9" y="986.2" class="st13" width="178.4" height="1.5" />
<rect x="1845.9" y="979.1" class="st13" width="178.4" height="1.3" />
<rect x="1849.4" y="972.1" class="st13" width="171.3" height="0.8" />
<rect x="1877.5" y="964.9" class="st13" width="115.2" height="0.7" />
<path class="st13"
d="M1832.9,914.1c23,0.2,87.1,4.4,117,43.9c16.2,21.3,27.2,44.9,34.5,64.6h44.7V893.4h-196.2V914.1z" />
</g>
<polygon class="st6" points="2100.1,891.2 1819.7,889.6 1808.9,709.2 1927.3,709.4 1984.5,609.8 2055.4,709.2 2082.1,709.2
2082.1,852.1 2117,879.3 2115.6,891.3 2101.5,892.1         " />
<polygon class="st6"
points="1810.8,706.9 1774.5,628.3 1734.7,759.2 1742.1,759.2 1752.3,756 1778.8,652.4 1806.5,720.5         " />
<polygon class="st13" points="1902.8,636.3 1926.2,707.5 1982.8,609.8         " />
<rect x="1831.2" y="879.3" class="st22" width="284.2" height="12.8" />
<polygon class="st13" points="1780,781.1 1742.1,877 1742.1,1024.2 1825.2,1024.2 1825.2,880         " />
<polygon class="st27" points="1780,766.4 1736.4,874.4 1736.4,892.1 1742.1,892.1 1742.1,877 1780,781.1 1825.2,880 1825.9,892.1
1831.2,892.1 1831.2,879.3         " />
<polygon class="st6" points="1810.8,706.9 1806.5,720.5 1923.6,719.6 1926.1,707         " />
<polygon class="st6" points="1982.8,609.8 1926.1,707 1923.6,719.6 1986.2,614.5         " />
<polygon class="st6"
points="2053.8,709.2 1982.8,609.8 1979.8,614.9 2053.5,720.5 2080.4,720.5 2080.9,709.2         " />
<polygon class="st6" points="2080.9,709.2 2080.4,720.5 2151,822.7 2151,803.3         " />
<rect x="1960.9" y="547.9" class="st6" width="50.5" height="14.3" />
<rect x="1946.3" y="547.9" class="st13" width="14.6" height="14.3" />
<polygon class="st23"
points="2081.4,852.9 1853.7,852.9 1807.4,767.2 1780.9,767.2 1832.1,880.1 2116.2,880.1         " />
<path class="st22" d="M2007.6,722.6c0.5-0.7,0.8-1.5,0.8-2.3c0-5.2-11.7-9.5-26.1-9.5c-14.4,0-26.1,4.2-26.1,9.5
c0,0.8,0.3,1.6,0.8,2.3h-9v8.3h68.7v-8.3H2007.6z" />
<path class="st6"
d="M2007.3,727.9h-1.2c-3.6-7.2-12.7-12.3-23.4-12.3c-10.7,0-19.8,5.1-23.4,12.3h-1.5v107h49.5V727.9z" />
<path class="st22" d="M1965.8,733.9c2.3-5.6,8.5-9.4,15.5-9.4c6.9,0,13.1,3.8,15.5,9.4l0.5,1.3v70.3H1965v-69.7L1965.8,733.9z
M1965,830.1v-21h32.2v21H1965z" />
<rect x="1954.9" y="835.9" class="st24" width="52.4" height="6.4" />
<path class="st22" d="M2304.3,992.9h-0.6V867.3h-122.9v125.6h-2.7c-3.7,0-6.6,2.4-6.6,5.4v3.3h139.4v-3.3
C2310.9,995.3,2308,992.9,2304.3,992.9z" />
<g>
<rect x="2173.8" y="867.3" class="st28" width="120.8" height="126.9" />
<path class="st14" d="M2289.1,990.1V873.3h-109.3v116.6h-0.2c-4.5,0-8.1,3.6-8.1,8.1h124C2295.5,994.1,2292.8,990.8,2289.1,990.1
z M2183.5,905.3h21.1v27.4h-21.1V905.3z M2183.5,935.1h21.1v28.2h-21.1V935.1z M2231.9,935.1v28.2h-24.4v-28.2H2231.9z
M2207.5,932.7v-27.4h24.4v27.4H2207.5z M2262.5,932.7h-27.6v-27.4h27.6V932.7z M2262.5,935.1v28.2h-27.6v-28.2H2262.5z
M2262.5,965.8v24.1h-27.6v-24.1H2262.5z M2265.5,989.9v-24.1h19.9v24.1H2265.5z M2285.4,963.3h-19.9v-28.2h19.9V963.3z
M2285.4,932.7h-19.9v-27.4h19.9V932.7z M2262.5,902.8h-27.6v-26.4h27.6V902.8z M2231.9,902.8h-24.4v-26.4h24.4V902.8z
M2231.9,965.8v24.1h-24.4v-24.1H2231.9z M2285.4,902.8h-19.9v-26.4h19.9V902.8z M2204.5,876.4v26.4h-21.1v-26.4H2204.5z
M2183.5,965.8h21.1v24.1h-21.1V965.8z" />
</g>
<rect x="2037.8" y="915.5" class="st23" width="55.2" height="108.7" />
<rect x="1857.3" y="745.6" class="st22" width="54.8" height="88.5" />
<path class="st14" d="M1907.1,753.6h-44.8V826h23.4l0,0h1.7l0,0h19.7V753.6z M1904.6,773.3h-17.2V756h17.2V773.3z M1887.4,774.8
h17.2v26h-17.2V774.8z M1885.7,756v17.3h-20.9V756H1885.7z M1864.8,774.8h20.9v26h-20.9V774.8z M1864.8,823.7v-21.3h20.9v21.3
H1864.8z M1887.4,823.7v-21.3h17.2v21.3H1887.4z" />
<g>
<rect x="1748.3" y="890.4" class="st6" width="70.6" height="20.4" />
<polygon class="st22"
points="1754,896.2 1818.9,896.2 1818.9,890.4 1748.3,890.4 1748.3,910.9 1754,910.9             " />
<path class="st14" d="M1747.6,889.6v22h72.2v-22H1747.6z M1771,910.1h-21.8v-18.8h21.8V910.1z M1796.5,910.1h-23.9v-18.8h23.9
V910.1z M1818.2,910.1h-19.9v-18.8h19.9V910.1z" />
</g>
<polygon class="st13" points="1807.2,720.5 1807.2,728.2 1923.6,728.2 1923.6,719.6         " />
<polygon class="st13" points="2080.4,720.5 2053.5,720.5 1983.2,619.6 1978.6,627.3 2041.8,720.5 2041.8,728.2 2080.4,728.2
2151,822.7         " />
<polygon class="st22" points="2312.3,822.7 2312.3,855.9 2172.1,855.9 2151,822.7         " />
<polygon class="st13" points="2006.3,642.7 2129.1,650.4 2354.9,803.3 2129,654.8         " />
<polygon class="st25" points="2152.2,822.6 2312.3,822.7 2314,1024.2 2151,1024.2         " />
<path class="st25" d="M2396.5,878" />
<polygon class="st25"
points="1734.7,759.2 1772.6,628.3 1902.8,636.3 1982.8,609.8 2006.3,642.7 2129.1,650.4 2358,806.7
2358,822.7 2152.2,822.6 2080.4,720.5 2053.5,720.5 1983.2,619.6 1923.6,719.6 1807.2,720.5 1778.6,656.9 1753.6,757         " />
<path class="st25" d="M1946.3,547.9h65.2c0,0,1.4,14.3,0,14.3c-1.4,0-65.2,0-65.2,0V547.9z" />
<line class="st25" x1="1951.5" y1="564" x2="1951.5" y2="620.1" />
<line class="st25" x1="2007.3" y1="564" x2="2007.3" y2="641.5" />
<polygon class="st25" points="1742.1,1024.2 1825.2,1024.2 1825.2,880 1780,781.1 1742.1,877         " />
<polygon class="st25" points="1832.1,880.1 1831.4,892.1 2115.6,891.3 2116.2,880.1         " />
<line class="st25" x1="2030.4" y1="892.1" x2="2029.8" y2="1024.2" />
<polyline class="st25" points="1742.1,892.1 1736.4,892.1 1736.4,874.4 1780.9,767.2         " />
<line class="st25" x1="1753.6" y1="757" x2="1753.6" y2="834.1" />
<line class="st25" x1="1807.2" y1="720.5" x2="1807.4" y2="767.2" />
<line class="st25" x1="2080.4" y1="720.5" x2="2081.4" y2="852.9" />
<polyline class="st29" points="2100.1,891.2 2099.7,1024.2 1825.2,1024.2         " />
<line class="st25" x1="2099.7" y1="1024.2" x2="2157.6" y2="1024.2" />
</g>

<g id="aef_00000163778965133330186130000000020483946764746885_"
transform="translate(458.5,595.5) rotate(1) translate(-50,-50)">
</g>

<g id="afs_00000053516165960204042140000007288192782314180514_"
transform="translate(458.5,595.5) rotate(1) translate(-50,-50)">

<g id="aft_00000062170885072425773490000001380862327406450832_"
transform="translate(-12.772,-136.933) translate(0,0) rotate(-1) scale(0.23,0.23) translate(-50,-50)">
</g>
</g>
<g>

<g id="adx_00000096772184463931527280000009269710987583251896_"
transform="translate(122.19,275.585) translate(-122.19,-275.585)">
<g id="ady_00000096757197226346514420000015254176207564849282_" transform="translate(122.155,276.045)">
<path id="adz_00000012439676826528052380000008130851301074828725_" class="st30" d="M-73.5,743.7l-2.6-137.5h-15.7v39.3h-5.7
c-11.5,0-20.8-9.3-20.8-20.8V597h-12.5v27.8c0,18.4,14.9,33.3,33.3,33.4h5.7l-3.9,85.6" />
</g>
<g id="ad0_00000009573461411423023230000007887517778386331019_" transform="translate(122.19,275.585)">
<path id="ad1_00000035530696648501250840000006538798665632468402_" class="st14" d="M-94.4,744.3l3.9-86.9h-7
c-17.7,0-32.1-14.4-32.1-32.1v-26.5h10v26.5c0,12.2,9.9,22,22.1,22.1h6.9v-39.3h13.2l2.5,136.3h2.5l-2.5-138.8H-93v39.3h-4.4
c-10.8,0-19.5-8.8-19.6-19.6v-29h-15v29c0,19.1,15.5,34.6,34.6,34.6h4.4l-3.8,84.3L-94.4,744.3z" />
</g>
</g>
<g id="th-c_00000179645347313138272840000003397899056509180808_">
<g id="ad3_00000063600019060132300710000003937834450274723458_" transform="translate(83.145,146.175)">
<path id="ad4_00000127758858594652715010000001337256473323283645_" class="st31" d="M21.2,590c8.5,8.5,8,20.4,2.2,25.3
c-3.8,3.3-10.1,3.4-15.7,1.1c-0.8,3-3.3,11.4-11.1,16.8c-11.1,7.7-29.2,7-36.8-3.7c-4.8-6.8-3.6-15.1-2.9-18.3
c-3.1,1.9-6.9,2.5-10.5,1.9c-6.2-1.2-11.1-6.7-12.5-13.8c-9.9,3.7-16.9,11.6-17.1,19.5c-0.3,11.3,13.2,24.2,31.9,22.2
c1.3,5.4,6.4,22.2,22.4,32.8c16.9,11.1,46,15.4,60.3-1.9c13.7-16.7,4.1-41.7,3.6-42.9c0.5-0.1,9.5-2.5,12-10.7
c2.3-7.2-1.3-15.8-9.1-19.9c0.7-8-4.3-13.8-9-13.8C24.6,584.6,21.5,589.7,21.2,590" />
</g>
<g id="ad5_00000137104951269093278940000009045719549670093979_" transform="translate(108.195,127.81)">
<path id="ad6_00000108292885352558090490000012119043861565723010_" class="st6" d="M-194.3,645.5c3.8-4.5,8.3-8.3,13.3-11.3
c-4-5.7-6.3-12.4-6.7-19.3c-1-18.4,11.2-34.1,27.2-35c2.5-0.1,5,0.1,7.5,0.7c1-7.7,3.3-15.3,7-22.2c7.2-13.4,20-22.8,35-25.6
c0.1-29.5,13.9-52.2,31.6-56.3c10.1-2.3,19.1,2,21,3c14.6,7.5,21.3,23.9,24,35.6C-15.9,525-0.8,549-1,564.5
c27.7,14.6,45.5,47.5,41.2,80.4c-0.9,6.7-2.7,13.3-5.4,19.5c3.2,1.7,6.1,3.9,8.4,6.6c10.2,11.6,6.9,26.8,6.6,28.4
c3.4,3,6.2,6.6,8.1,10.8c4.1,9.2,5.2,24.2-4.3,32.8s-26.5,8.3-38.3-3c-0.1,1.4-0.9,11.1-8.8,16.5s-19.6,4.4-27.9-3.1
c0.4,19.4-10.8,34.5-24.2,36.8c-13.7,2.4-24.6-9.6-26.9-12.3c-6.6-7.8-9.4-18.1-9.1-27.7c-3.7,0.4-7.4,0.3-11-0.3
c0.8,10.8-4.2,20.5-12.4,24.4c-9.2,4.4-18.5-0.3-21.4-1.8c-13.9-6.9-17.1-22.3-17.5-24.7c-10.8,6.7-23.2,6.8-30.6,0.5
c-3.5-3.1-5.9-7.4-6.6-12c-1.2-8.1,2.9-16.5,10.4-21.8c-7.8,1.3-15.8-0.7-22.1-5.6c-4.1-3.4-7.2-7.9-9-13
C-207.4,682.4-207.5,661.1-194.3,645.5" />
</g>
<g id="ad7_00000075152926681658924010000015013660168181019537_" transform="translate(108.195,127.81)">
<path id="ad8_00000123417848528470719120000015570108620488743575_" class="st22" d="M-186.6,684.1c-4.8-12.1-4.9-30.9,6.7-44.6
c3.3-3.9,7.3-7.3,11.7-9.9c-3.5-5-5.6-10.9-5.9-17c-0.9-16.2,9.8-30,24-30.8c2.2-0.1,4.4,0.1,6.6,0.6c0.9-6.8,2.9-13.4,6.2-19.5
c6.3-11.8,17.7-20.1,30.8-22.5c0-26,12.3-46,27.8-49.6c8.9-2,16.8,1.8,18.5,2.6c12.9,6.6,18.8,21,21.2,31.3
c16.3,8.7,29.6,29.9,29.5,43.5c24.5,12.9,40.1,41.9,36.3,70.9c-0.7,5.9-2.4,11.7-4.8,17.2c2.8,1.5,5.3,3.4,7.5,5.8
c9,10.2,6.1,23.6,5.8,25c3,2.6,5.5,5.8,7.1,9.5c3.6,8.1,4.6,21.4-3.8,28.9c-8.3,7.5-23.4,7.3-33.8-2.6C4.7,724,4,732.6-3,737.3
s-17.2,3.9-24.6-2.8c0.4,17.1-9.6,30.4-21.3,32.4c-12.1,2.1-21.7-8.4-23.7-10.8c-5.8-6.8-8.2-15.9-8.1-24.5
c-3.2,0.4-6.5,0.3-9.7-0.2c0.7,9.6-3.7,18.1-10.9,21.6c-8.1,3.9-16.4-0.3-18.9-1.6c-12.2-6.1-15.1-19.7-15.4-21.7
c-9.5,5.9-20.5,6-27,0.5c-3.1-2.7-5.2-6.5-5.8-10.6c-1-7.1,2.5-14.5,9.2-19.2c-6.9,1.2-14-0.6-19.4-4.9c-3.6-3-6.4-7-7.9-11.5
M-194.3,645.5c-13.2,15.5-13.1,36.9-7.6,50.6c1.8,5.1,4.9,9.6,9,13c6.2,4.9,14.2,6.9,22.1,5.6c-7.6,5.3-11.6,13.7-10.4,21.8
c0.7,4.6,3.1,8.9,6.6,12c7.4,6.2,19.8,6.2,30.6-0.5c0.5,2.4,3.7,17.7,17.5,24.7c2.9,1.4,12.3,6.1,21.4,1.8
c8.2-3.9,13.1-13.6,12.4-24.4c3.7,0.6,7.4,0.7,11,0.3c-0.2,9.7,2.6,20,9.1,27.7c2.3,2.7,13.2,14.7,26.9,12.3
c13.4-2.3,24.6-17.4,24.2-36.8c8.4,7.5,20,8.6,27.9,3.2s8.7-15.1,8.8-16.5c11.7,11.2,28.8,11.6,38.3,3s8.4-23.7,4.3-32.8
c-1.9-4.1-4.6-7.8-8.1-10.8c0.4-1.6,3.6-16.8-6.6-28.4c-2.4-2.7-5.2-4.9-8.4-6.6c2.8-6.2,4.6-12.8,5.4-19.5
C44.5,612,26.7,579.1-1,564.5c0.2-15.4-15-39.5-33.5-49.4c-2.7-11.7-9.4-28.1-24-35.6c-1.9-0.9-10.8-5.3-21-3
c-17.7,4-31.5,26.8-31.6,56.3c-14.9,2.8-27.8,12.2-35,25.6c-3.6,6.9-6,14.4-7,22.2c-2.5-0.6-5-0.8-7.5-0.7
c-16.1,0.9-28.3,16.5-27.2,34.9c0.3,6.9,2.7,13.7,6.7,19.3C-186,637.2-190.5,641-194.3,645.5" />
</g>
<g id="ad9_00000117640299691264640300000005379452149136907668_" transform="translate(106.736,127.566)">
<path id="aea_00000067915300075975714390000005317750910741351562_" class="st14" d="M-47.4,792c1.2,0,2.3-0.1,3.5-0.3
c3.6-0.6,7-2.1,10-4.2c3.2-2.3,5.9-5.1,8.1-8.3c2.4-3.5,4.2-7.4,5.4-11.6c1.1-3.7,1.6-7.5,1.8-11.3c1.6,1.2,3.3,2.2,5,2.9
c2.5,1.1,5.1,1.8,7.7,2.1c5.1,0.6,10.3-0.6,14.7-3.5c3.6-2.6,6.4-6.2,7.8-10.4c0.5-1.5,0.9-3.1,1.2-4.7c5.4,4.5,12,7.2,19,7.6
c3.5,0.2,7.1-0.2,10.4-1.3c3.3-1,6.3-2.7,8.8-5c4.5-4.1,7.2-10,7.6-17c0.4-5.9-0.7-11.8-3-17.2c-1.8-4.1-4.5-7.8-7.9-10.8
c0.6-3.3,0.8-6.7,0.5-10.1c-0.2-3.1-0.9-6.2-1.9-9.2c-1.3-3.5-3.2-6.7-5.6-9.5c-2.2-2.5-4.9-4.7-7.8-6.3
c2.5-6,4.3-12.3,5.1-18.8c1.1-8.2,0.8-16.6-0.7-24.8c-3-16-10.7-30.8-22.1-42.6c-5.4-5.6-11.6-10.3-18.4-14
c-0.1-7.7-3.7-17.3-9.9-26.7c-3.1-4.7-6.8-9.1-10.8-13.1c-3.8-3.7-8.2-7-12.9-9.6c-1.6-6.7-4.1-13.2-7.6-19.1
c-3.9-7.1-9.8-12.8-17-16.6c-2.4-1.2-5-2.2-7.7-2.8c-4.6-1.2-9.5-1.3-14.1-0.3c-4.8,1.1-9.2,3.4-12.9,6.6
c-4.1,3.6-7.6,7.8-10.3,12.6c-3.1,5.4-5.4,11.2-6.9,17.3c-1.6,6.6-2.5,13.3-2.5,20c-14.9,3-27.7,12.5-34.9,26
c-3.5,6.6-5.8,13.8-6.9,21.2c-6.2-1.2-12.7-0.1-18.2,3c-3.6,2-6.7,4.7-9.2,8c-2.6,3.4-4.6,7.2-5.8,11.3c-1.3,4.4-1.9,9-1.6,13.5
c0.3,6.7,2.4,13.2,6.1,18.9c-4.7,3-8.9,6.6-12.4,10.9c-0.8,1-1.7,2-2.4,3.1l2,1.4c0.7-1,1.5-2,2.3-2.9c3.7-4.4,8.1-8.1,13-11
l1.2-0.7l-0.8-1.1c-3.9-5.5-6.1-11.9-6.4-18.6c-0.2-4.3,0.3-8.6,1.5-12.7c1.2-3.8,3-7.4,5.4-10.5c2.3-3,5.2-5.5,8.5-7.3
c5.4-3,11.7-3.9,17.7-2.4l1.4,0.3l0.2-1.4c1-7.6,3.3-14.9,6.8-21.7c4.5-8.6,11.6-15.6,20.2-20.1c4.4-2.3,9.1-4,13.9-4.8l1-0.2
l0-1.1c0-6.9,0.8-13.7,2.5-20.4c1.4-5.8,3.6-11.5,6.6-16.7c5.6-9.7,13.3-16.1,21.6-18c4.3-0.9,8.7-0.9,13,0.2
c2.5,0.6,4.8,1.5,7.1,2.6c6.7,3.6,12.3,9,16,15.7c3.4,5.9,5.9,12.3,7.4,18.9l0.1,0.6l0.5,0.3c4.7,2.6,9,5.7,12.8,9.5
c3.9,3.8,7.5,8.1,10.5,12.7c2.9,4.3,5.2,8.8,7,13.6c1.6,4,2.4,8.2,2.5,12.4l0,0.8l0.7,0.4c6.8,3.6,13.1,8.3,18.4,13.9
c11,11.4,18.5,25.7,21.4,41.3c1.5,7.9,1.8,16,0.7,24c-0.8,6.6-2.6,13.1-5.3,19.1l-0.5,1.1l1,0.5c3.1,1.6,5.8,3.7,8.1,6.3
c2.2,2.5,4,5.5,5.1,8.6c1,2.7,1.6,5.6,1.8,8.5c0.3,3.4,0.1,6.8-0.6,10.1l-0.2,0.7l0.6,0.5c3.3,2.8,6,6.4,7.8,10.3
c2.2,5,3.2,10.5,2.8,16c-0.3,4.4-1.7,10.7-6.8,15.4c-2.3,2-4.9,3.5-7.8,4.4c-3.1,1-6.3,1.4-9.5,1.2c-7.2-0.5-14-3.5-19.2-8.6
l-1.9-1.8l-0.2,2.7c-0.2,2.2-0.6,4.3-1.4,6.4c-1.3,3.7-3.7,6.9-6.9,9.2c-3.8,2.6-8.4,3.7-13,3.1c-2.4-0.3-4.8-0.9-7-1.9
c-2.4-1.1-4.5-2.5-6.5-4.2l-2.1-1.9l0.1,2.9c0.1,4.5-0.5,8.9-1.7,13.2c-1.1,3.9-2.8,7.5-5,10.8c-2,3-4.5,5.6-7.5,7.6
c-2.7,1.9-5.7,3.2-9,3.8c-5.5,1-11.2-0.4-16.8-4c-3.3-2.2-6.3-4.8-8.9-7.8c-3.1-3.7-5.5-8.1-6.9-12.7c-1.4-4.6-2.1-9.4-2-14.2
l0-1.4l-1.4,0.2c-3.6,0.4-7.2,0.3-10.7-0.3l-1.6-0.2l0.1,1.6c0.4,4.9-0.6,9.8-2.7,14.2c-1.9,3.9-5.1,7.1-9,9.1
c-3.8,1.8-8.2,2.2-12.3,1.2c-2.8-0.6-5.5-1.6-8.1-3c-3.1-1.5-5.8-3.6-8.2-6.2c-2-2.2-3.7-4.7-5.1-7.3c-1.7-3.2-2.9-6.7-3.6-10.2
l-0.3-1.8l-1.5,1c-4.8,3.1-10.3,4.8-15.9,4.9c-2.5,0.1-4.9-0.3-7.2-1c-2.2-0.7-4.2-1.8-6-3.3c-3.3-2.9-5.5-6.9-6.2-11.2
c-0.5-3.9,0.1-7.8,1.8-11.3c1.8-3.8,4.6-7,8.1-9.4l4.6-3l-5.4,0.9c-3.8,0.6-7.7,0.5-11.4-0.5c-3.5-0.9-6.8-2.5-9.7-4.8
c-4-3.3-6.9-7.6-8.6-12.5l-2.3,0.9c1.8,5.3,5.1,10,9.4,13.6c3.1,2.5,6.7,4.3,10.6,5.3c2.7,0.7,5.5,1,8.2,0.9
c-2.3,2.2-4.3,4.8-5.7,7.7c-1.9,3.9-2.6,8.3-2,12.6c0.3,1.7,0.7,3.4,1.4,5c2.2,5.5,6.8,9.8,12.5,11.6c2.6,0.8,5.3,1.2,8,1.1
c5.5-0.1,10.9-1.7,15.7-4.4c0.8,3.2,2,6.3,3.5,9.2c1.5,2.9,3.3,5.5,5.5,7.9c2.5,2.8,5.5,5,8.9,6.7c2.7,1.4,5.6,2.5,8.7,3.2
c4.6,1.1,9.5,0.6,13.8-1.4c4.4-2.2,8-5.8,10.1-10.2c2.2-4.3,3.2-9.1,3.1-13.9c2.8,0.4,5.6,0.4,8.5,0.2c0,4.6,0.7,9.2,2.1,13.6
c1.5,5,4,9.6,7.4,13.6c2.7,3.2,5.9,6,9.4,8.3c2.6,1.7,5.4,3,8.4,3.8C-52,791.8-49.7,792-47.4,792z" />
</g>
<g id="aeb_00000061438390368736547730000016050534273293885067_" transform="translate(143.43,157.409)">
<path id="aec_00000088126829249702075580000011817800564907606183_" class="st14" d="M-127.4,673.1c1,0,1.9-0.2,2.9-0.4
l-0.4-1.2l-0.4-1.2c0,0-3.2,1-5.3-0.6c-1.5-1.1-2.3-3.4-2.2-6.8c0-1.1-0.4-2.1-1.2-2.8c-1-1-2.4-1.6-3.8-1.6
c-3.7,0.1-7.4-0.3-11-1.2c-2.5-0.6-4.7-2-6.2-3.9c-2.3-3.2-2.3-8.3,0.2-15.5c0.3-1.1,0-2.3-0.7-3.2c-0.5-0.6-1.3-1-2.2-0.8
c-3,0.5-6,0.3-8.9-0.4c-4.8-1.2-7.2-3.3-8.4-5c-1.3-1.9-1.9-4.2-1.6-6.5c0.5-3.7,1.8-7.2,3.8-10.4l-2.1-1.3
c-2.2,3.5-3.6,7.4-4.1,11.4c-0.3,2.9,0.4,5.7,2.1,8.1c2.6,3.6,6.7,5.2,9.8,5.9c3.2,0.8,6.5,0.9,9.8,0.5c0.1,0.2,0.2,0.5,0.2,0.7
c-2.7,8-2.7,13.8,0.1,17.8c3,4.2,9.1,6.2,19.2,6.2c0.7,0,1.4,0.3,2,0.8c0.3,0.3,0.4,0.6,0.5,1c-0.1,4.3,1,7.2,3.2,8.9
C-130.7,672.6-129.1,673.1-127.4,673.1z" />
</g>
<g id="aed_00000087411238265907087190000016450519517771902362_" transform="translate(122.955,94.135)">
<path id="aee_00000008111554900789380840000001932395203001848995_" class="st14"
d="M-24,684.8c-0.6-1-1.1-1.6-1.2-1.7l-2,1.5
c0,0.1,4.9,6.5,3.6,11.7c-0.7,2.3-2.4,4.2-4.7,5.1l-1.1,0.5l0.5,1.1c0.1,0.1,4.3,9.1,0.8,14.4c-1.8,2.8-5.6,4.2-11.3,4l-0.1,2.5
c6.6,0.2,11.1-1.6,13.4-5.2c3.4-5.3,1-12.9-0.2-15.8c2.5-1.3,4.3-3.5,5-6.2C-20,692.3-22.4,687.4-24,684.8z" />
</g>
<g>
<line class="st24" x1="44.2" y1="730.8" x2="44.2" y2="765.4" />
<path class="st24" d="M35.8,730.8c0,0,0.3,14.5,0.1,15.4c-0.1,0.9-6.7-5.3-11-7.7s-7.2-3.4-7.2-3.4" />
<path class="st24" d="M36,764.5c0,0,1.4-8,0-10.3c-1.4-2.4-8.8-7.4-12.7-9.5s-6.9-3.8-6.9-3.8" />
</g>
<path class="st25" d="M30.8,721c-13.4,4.3-19.8-12-8.3-18.9c5.6-3.4,12.3,4.6,12.3,4.6s1.5-8.9,12-6.4c7.5,1.8,6.5,10.9,6.5,10.9
s10,1,10,7.5c0,6.3-4.4,10-10,10" />
</g>
</g>
<g id="cx_00000163766372015259580720000005135788806344130695_" transform="translate(261.23,96.073)">
<path id="cy_00000164507243477115967820000009302101246120880012_" class="st6" d="M1714.9,693.3v-12l-30.1-36.8v12.1
L1714.9,693.3z" />
</g>
<g id="cx_00000155840623995793672070000016480559232595708803_" transform="translate(261.23,96.073)">
<path id="cy_00000101077955974679275300000009247384348969018539_" class="st6" d="M1739.5,704.8l-0.1-6l-30.1-36.8l0.1,7.4
L1739.5,704.8z" />
</g>

<g id="yj_00000176745895705010453060000013975075879464368521_"
transform="translate(159.685,723.772) translate(-159.935,-44.222)">
<g id="yk_00000173883195711489585020000011538106348838719417_" transform="translate(159.935,32.71)">
<path id="yl_00000168116417367117344220000005718963057001577630_" class="st6" d="M1776.9,325.4h-104.1
c-9.4-39.3-52.1-14.5-52.1-14.5c-14.5-25.6-26.5-6.8-26.5-6.8c-25.6-64-68.3-15.4-68.3-15.4c-12.1-32.2-60.4-5.5-60.4-5.5
s-48.6-14.5-41.2,42.2h-67.4" />
</g>
<g id="ym_00000031166111928028730780000003958564098835868085_" transform="translate(145.509,44.155)">
<path id="yn_00000011009399708233318230000017359888256789144216_" class="st14" d="M1486,315.5h-18.7c-8.9,0-15.9,0-20.6-0.1
h-5.8h-1.6h-0.4c-0.6,0-1.1-0.4-1.3-0.9c0-0.1,0-0.2,0-0.3c-1.4-18.2,2.3-31.2,11.3-38.5c3.1-2.5,6.7-4.3,10.6-5.3
c3.4-0.9,6.9-1.3,10.4-1.2c3.5,0,7.1,0.5,10.5,1.3c3.4-2.8,7-5.2,10.9-7.3c3.7-2,7.7-3.6,11.8-4.7c4.5-1.2,9.3-1.5,13.9-0.8
c9.4,1.5,17.4,7.4,23.7,17.5c3.2-3.3,6.7-6.3,10.5-8.9c3.8-2.7,8-4.8,12.4-6.3c4.8-1.6,9.9-2.1,14.9-1.3
c12.3,2.1,22.6,12.7,30.5,31.4c1.9-2.2,5.7-5.5,10.6-5.4c5.6,0.1,10.9,4.5,16,13c3.8-2,7.8-3.6,11.8-4.9c4-1.3,8.2-2.1,12.4-2.3
c4.5-0.3,9,0.4,13.1,2.1c7.7,3.3,12.9,10.4,15.5,21c0.2,0.7-0.2,1.4-0.9,1.6c-0.7,0.2-1.4-0.2-1.6-0.9c-1-4.6-2.9-9-5.7-12.8
c-2.2-2.8-5-5-8.3-6.5c-3.8-1.5-7.8-2.2-11.9-1.9c-4,0.2-7.9,1-11.7,2.2c-4.3,1.3-8.5,3.1-12.5,5.3c-0.6,0.4-1.4,0.1-1.8-0.5
c-2-3.8-4.7-7.3-8-10.1c-1.8-1.6-4.1-2.5-6.4-2.6c-5.8-0.2-9.8,6-9.8,6c-0.4,0.6-1.2,0.8-1.8,0.4c-0.2-0.2-0.4-0.4-0.5-0.6
c-7.7-19.1-17.5-29.8-29.4-31.9c-4.6-0.7-9.2-0.3-13.6,1.2c-4.2,1.4-8.2,3.4-11.8,6c-4.1,2.8-7.9,6.1-11.3,9.7
c-0.5,0.5-1.3,0.6-1.9,0.1c-0.1-0.1-0.2-0.2-0.3-0.3c-2.8-5-6.5-9.3-11-12.8c-3.5-2.6-7.5-4.3-11.7-5c-4.3-0.6-8.7-0.4-12.8,0.7
c-3.9,1-7.7,2.5-11.2,4.4c-3.9,2.1-7.6,4.5-11,7.4c-0.3,0.3-0.8,0.4-1.2,0.3c-3.4-0.9-7-1.3-10.5-1.3c-3.3-0.1-6.5,0.3-9.7,1.2
c-3.5,0.8-6.7,2.3-9.6,4.5c-8,6.6-11.5,18.4-10.4,35.1c12,0.3,121.4,0.1,180-0.1c0.7,0,1.3,0.6,1.3,1.3c0,0.7-0.6,1.3-1.3,1.3
c-0.4,0-45.8,0.1-90.5,0.2L1486,315.5z" />
</g>
<g id="yo_00000137810353938807866200000013332716283404308613_" transform="translate(106.088,48.612)">
<path id="yp_00000003093985834232102280000016954795276122285743_" class="st14" d="M1563.4,296.3c-0.7,0-1.3-0.6-1.3-1.3
c0-0.1,0-0.1,0-0.2c0.2-2.9-0.3-4.9-1.7-6.1c-2.6-2.2-7.6-0.9-7.6-0.9c-0.6,0.2-1.2-0.1-1.5-0.7c-1.3-2.7-3-4.2-5-4.5
c-2-0.2-4,0.4-5.6,1.7c-1,0.7-1.9,1.4-2.8,2.3c-0.4,0.6-1.2,0.8-1.8,0.5s-0.8-1.2-0.5-1.8c0.1-0.2,0.2-0.3,0.4-0.4
c0.2-0.2,5.3-5.5,10.7-4.7c2.6,0.4,4.8,2.1,6.6,5c1.9-0.4,6.1-0.7,9,1.6c2.1,1.7,3,4.5,2.6,8.3
C1564.7,295.8,1564.1,296.3,1563.4,296.3z" />
</g>
</g>

<g id="yj_00000008861281519096432990000011283855758314220980_"
transform="translate(159.685,723.772) translate(-159.935,-44.222)">
<g id="yk_00000119827306131618510790000003568523937971445437_" transform="translate(159.935,32.71)">
<path id="yl_00000183966476982390025440000013529123399320517787_" class="st6" d="M38.1,325.8h-94.7
c-8.5-35.7-47.3-13.2-47.3-13.2c-13.2-23.3-24.1-6.2-24.1-6.2c-23.3-58.2-62.1-14-62.1-14c-11-29.3-54.9-5-54.9-5
s-44.2-13.2-37.4,38.3h-61.3" />
</g>
<g id="ym_00000005247837870380729280000014501713207993169043_" transform="translate(145.509,44.155)">
<path id="yn_00000129913492168859734810000006771814137846772126_" class="st14" d="M-225.2,315.8h-17c-8.1,0-14.4,0-18.7-0.1
h-5.3h-1.4h-0.4c-0.5,0-1-0.3-1.2-0.9c0-0.1,0-0.2,0-0.3c-1.3-16.6,2.1-28.4,10.2-35c2.8-2.3,6.1-3.9,9.6-4.8
c3.1-0.8,6.3-1.2,9.5-1.1c3.2,0,6.4,0.4,9.6,1.2c3.1-2.5,6.4-4.7,9.9-6.6c3.4-1.8,7-3.3,10.8-4.3c4.1-1.1,8.4-1.3,12.7-0.7
c8.5,1.4,15.8,6.7,21.5,16c2.9-3,6.1-5.7,9.6-8.1c3.5-2.4,7.3-4.3,11.3-5.7c4.3-1.5,9-1.9,13.5-1.2c11.2,1.9,20.6,11.5,27.7,28.5
c1.7-2,5.1-5,9.7-4.9c5.1,0.1,9.9,4.1,14.5,11.8c3.4-1.8,7-3.3,10.8-4.4c3.7-1.2,7.4-1.9,11.3-2.1c4.1-0.3,8.2,0.4,12,1.9
c7,3,11.8,9.5,14.1,19.1c0.2,0.6-0.2,1.3-0.9,1.5c-0.6,0.2-1.3-0.2-1.5-0.9c-0.9-4.2-2.7-8.2-5.2-11.7c-2-2.6-4.5-4.6-7.5-5.9
c-3.4-1.4-7.1-2-10.8-1.7c-3.6,0.2-7.2,0.9-10.7,2c-3.9,1.2-7.8,2.8-11.4,4.8c-0.6,0.3-1.3,0.1-1.6-0.4c-1.8-3.5-4.3-6.6-7.2-9.2
c-1.6-1.4-3.7-2.3-5.9-2.4c-5.3-0.1-8.9,5.4-8.9,5.5c-0.4,0.6-1.1,0.7-1.6,0.4c-0.2-0.1-0.4-0.3-0.5-0.6
c-7-17.4-15.9-27.1-26.7-29c-4.2-0.6-8.4-0.3-12.4,1.1c-3.8,1.3-7.4,3.1-10.8,5.4c-3.8,2.5-7.2,5.5-10.3,8.8
c-0.4,0.5-1.2,0.5-1.7,0.1c-0.1-0.1-0.2-0.2-0.2-0.3c-2.5-4.5-5.9-8.5-10-11.7c-3.1-2.3-6.8-3.9-10.7-4.5
c-3.9-0.6-7.9-0.3-11.7,0.7c-3.6,0.9-7,2.3-10.2,4c-3.6,1.9-6.9,4.1-10,6.7c-0.3,0.3-0.7,0.4-1.1,0.3c-3.1-0.8-6.3-1.2-9.6-1.2
c-3,0-5.9,0.3-8.8,1.1c-3.2,0.7-6.1,2.1-8.7,4.1c-7.3,6-10.5,16.7-9.4,31.9c10.9,0.3,110.4,0.1,163.7-0.1c0.7,0,1.2,0.5,1.2,1.2
c0,0.7-0.5,1.2-1.2,1.2c-0.4,0-41.6,0.1-82.3,0.2L-225.2,315.8z" />
</g>
<g id="yo_00000132772460456143628080000017523264513483695008_" transform="translate(106.088,48.612)">
<path id="yp_00000108275027213150880810000013055278509009024955_" class="st14" d="M-151.3,297.9c-0.7,0-1.2-0.5-1.2-1.2
c0-0.1,0-0.1,0-0.2c0.2-2.6-0.3-4.5-1.6-5.5c-2.4-2-6.9-0.8-6.9-0.8c-0.5,0.2-1.1-0.1-1.4-0.6c-1.2-2.5-2.8-3.8-4.6-4.1
c-1.8-0.1-3.7,0.4-5.1,1.5c-0.9,0.6-1.8,1.3-2.5,2.1c-0.3,0.6-1.1,0.8-1.6,0.4s-0.8-1.1-0.4-1.6c0.1-0.1,0.2-0.3,0.4-0.4
c0.2-0.2,4.8-5,9.8-4.3c2.4,0.4,4.4,1.9,6,4.6c1.8-0.3,5.6-0.7,8.1,1.5c1.9,1.6,2.7,4.1,2.4,7.6
C-150.1,297.5-150.7,297.9-151.3,297.9z" />
</g>
</g>
<path class="st25" d="M1995.8,734.4c-2.2-5.3-8-8.8-14.6-8.8c-6.5,0-12.4,3.6-14.6,8.8l-0.7,1.8v62.7v2.9v2v21.1h30.4v-23.1v-2.9
v-63.3L1995.8,734.4z" />
<line class="st25" x1="1997" y1="807.2" x2="1965.2" y2="807.2" />
<g>

<g id="aeg_00000110458054711825775600000017354317902666866822_"
transform="translate(458.5,595.5) rotate(1) translate(-50,-50)">

<g id="aeh_00000043451911495989747700000016503374959627320737_"
transform="translate(-12.772,-136.933) translate(0,0) rotate(-1) scale(0.23,0.23) translate(-50,-50)">
<g id="aei_00000160885740878969370020000010428038151438180257_"
transform="translate(25.809,96.924) scale(5.98,5.98)">
<g id="aej_00000127741592793798562380000001463159646622707843_">
<path id="aek_00000164481913587952252650000010131175033744878507_" class="st32"
d="M53.9,251.4c-1.4-1.7-1-6.4-1-6.4" />
</g>
</g>
</g>
</g>

<g id="ael_00000025436316917221850080000002678472166243632285_"
transform="translate(458.5,595.5) rotate(1) translate(-50,-50)">

<g id="aem_00000032642049038507137760000013339492454506918073_"
transform="translate(-12.772,-136.933) translate(0,0) rotate(-1) scale(0.23,0.23) translate(-50,-50)">
<g id="aen_00000176753175601821055720000005235455392828932248_"
transform="translate(43.023,95.687) scale(5.98,5.98)">
<g id="aeo_00000099634739771979495750000004952426943652034712_">
<path id="aep_00000150812350376491371920000012100748891735058066_" class="st32"
d="M54.4,251.4c-1.5-1.7-1-6.4-1-6.4" />
</g>
</g>
</g>
</g>

<g id="aeq_00000137817022812591997140000010084231747643868325_"
transform="translate(458.5,595.5) rotate(1) translate(-50,-50)">

<g id="aer_00000165231012990217605310000005202584302229574809_"
transform="translate(-12.772,-136.933) translate(0,0) rotate(-1) scale(0.23,0.23) translate(-50,-50)">

<g id="aes_00000178202693601378715980000006256190857508528286_"
transform="translate(48.99,57.639) translate(0,0) scale(5.98,5.98) translate(-15.601,-12.295)">

<g id="aet_00000028298808839196266310000003205139125481427872_"
transform="translate(15.601,14.302) translate(0,0) translate(-15.601,-12.295)">
<g id="aeu_00000099660359499885798350000016577230305042506377_"
transform="translate(4.396,7.76) translate(-4.396,-7.76)">
<g id="aev_00000127012318508968251180000006198658318183254414_" transform="translate(4.62,7.448)">
<path id="aew_00000163074075552130307490000007480243830565597569_" class="st6" d="M54.5,244.6c0,0-5.5-1.5-6.6-0.2
c-1.2,1.3,5.9,5.2,5.9,5.2S57.2,246.8,54.5,244.6z" />
</g>
<g id="aex_00000070836163456707118650000015220094341505254578_"
transform="translate(4.299,7.774)">
<path id="aey_00000026159174827832269950000007420240921218290347_" class="st14" d="M54.6,244.8c-1.7-0.5-3.4-0.7-5.2-0.6
c-0.2,0-0.5,0.1-0.7,0.2c0,0.1,0.4,0.9,2.8,2.5c1,0.7,2,1.3,2.6,1.6c0.7-0.6,1.1-1.5,1.2-2.4
C55.2,245.6,55,245.1,54.6,244.8L54.6,244.8z M49.2,243L49.2,243c2-0.1,3.9,0.1,5.8,0.7h0.1l0.1,0.1
c0.7,0.6,1.2,1.5,1.2,2.4c-0.2,1.4-0.9,2.7-1.9,3.6l-0.3,0.3l-0.4-0.2c-0.1,0-1.5-0.8-3-1.8c-2.8-1.9-3.3-2.9-3.4-3.4
c-0.1-0.3,0-0.7,0.3-0.9C48.1,243.2,48.6,243,49.2,243z" />
</g>
</g>
</g>
</g>
</g>
</g>

<g id="ae1_00000034772197564426279910000008820739818326228658_"
transform="translate(458.5,595.5) rotate(1) translate(-50,-50)">

<g id="ae2_00000024710253173863274670000011872638977362024852_"
transform="translate(-12.772,-136.933) translate(0,0) rotate(-1) scale(0.23,0.23) translate(-50,-50)">

<g id="ae3_00000044166758032228058830000011178906590301117582_"
transform="translate(48.99,57.639) translate(0,0) scale(5.98,5.98) translate(-15.601,-12.295)">

<g id="ae4_00000070801713446182071580000016669297294829518499_"
transform="translate(12.614,9.271) translate(-12.614,-9.271)">
<g id="ae5_00000123405140774925517220000012249235017947824063_" transform="translate(17.112,9.703)">
<path id="ae6_00000065777958735616967230000003290293924472484529_" class="st6"
d="M69.7,243.3L59.4,248
c-0.9,5.4-5.9,9-11.3,8.1c-5.4-0.9-9-5.9-8.1-11.3c0.9-5.4,5.9-9,11.3-8.1c3.4,0.6,6.3,2.8,7.6,6l5.2-4.1L69.7,243.3z" />
</g>
<g id="ae7_00000018924096531282939550000002254290763438272416_" transform="translate(17.46,9.735)">
<path id="ae8_00000143582421363782827540000004492871580877400992_" class="st14" d="M47.9,237.3c-5,0.8-8.5,5.5-7.7,10.6
c0,0,0,0,0,0c0.8,5,5.5,8.5,10.6,7.7c4-0.6,7.1-3.7,7.7-7.7v-0.3l9.7-4.4l-4.5-3.7l-5.4,4.3l-0.3-0.7
C56.3,238.9,52.1,236.6,47.9,237.3L47.9,237.3z M51,256.7c-5.7,0.8-11-3.3-11.7-9c-0.7-5.5,3-10.6,8.5-11.7
c4.5-0.7,9,1.6,11,5.7l4.9-3.9l6.8,5.6l-10.8,5C58.9,252.7,55.4,256.1,51,256.7z" />
</g>
</g>
</g>
</g>
</g>

<g id="afb_00000132768865897938103280000011890092549808762765_"
transform="translate(458.5,595.5) rotate(1) translate(-50,-50)">

<g id="afc_00000099660309230898955420000007989072479531092893_"
transform="translate(-12.772,-136.933) translate(0,0) rotate(-1) scale(0.23,0.23) translate(-50,-50)">

<g id="afd_00000038376176922203524290000005279090524001670326_"
transform="translate(48.99,57.639) translate(0,0) scale(5.98,5.98) translate(-15.601,-12.295)">

<g id="afe_00000145780235525303166760000006655947972796228499_"
transform="translate(15.601,14.302) translate(0,0) translate(-15.601,-12.295)">
<g id="aff_00000090255656891699202850000017685013959701251983_" transform="translate(9.09,7.468)">
<path id="afg_00000118356047558864705330000014685267362910214077_" class="st14"
d="M53.6,246.2c0.1,0.4-0.2,0.8-0.6,0.9
c-0.4,0.1-0.8-0.2-0.9-0.6c0,0,0,0,0,0c-0.1-0.4,0.2-0.8,0.6-0.9C53.1,245.5,53.5,245.8,53.6,246.2" />
</g>
</g>
</g>
</g>
</g>

<g id="afh_00000134217559438631170380000014169376037811756970_"
transform="translate(458.5,595.5) rotate(1) translate(-50,-50)">

<g id="afi_00000159442104469333137550000009805013323745317255_"
transform="translate(-12.772,-136.933) translate(0,0) rotate(-1) scale(0.23,0.23) translate(-50,-50)">

<g id="afj_00000059306839762603442360000002989677019280289697_"
transform="translate(48.99,57.639) translate(0,0) scale(5.98,5.98) translate(-15.601,-12.295)">

<g id="afk_00000015313145234127246760000004912754193901485503_"
transform="translate(15.601,12.295) translate(-15.601,-12.295)">

<g id="afl_00000123407418994083752640000000970398230632083646_"
transform="translate(12.918,10.942) rotate(0.171) translate(-12.918,-10.942)">
<g id="afm_00000103976795735022101840000013296759072569316754_"
transform="translate(18.155,14.01)">
<path id="afn_00000025426857995975093970000009958984177403147432_" class="st6" d="M56.7,245.3c-1-0.8-2.3-1.2-3.6-1.3
c-1.1-0.1-2.2,0.4-2.9,1.4c-0.5,0.9-0.3,2,0.4,2.7c1.2,1.5,3.1,2.2,5,1.8c1.9-0.3,4.3-1,5.3-2.4
C59.4,247,58,246.2,56.7,245.3z" />
</g>
<g id="afo_00000116944948915135270630000000193452175082401206_"
transform="translate(18.249,14.061)">
<path id="afp_00000134927895046641668990000012745769434020868019_" class="st14" d="M59.7,247.7c-1.3-0.5-2.4-1.1-3.5-1.9
c-0.9-0.7-2.1-1.1-3.2-1.1c-0.2,0-0.5,0-0.7,0c-0.7,0.1-1.3,0.5-1.7,1c-0.2,0.4-0.4,1,0.3,2c1.1,1.3,2.8,1.9,4.5,1.6
C57,249,58.5,248.5,59.7,247.7L59.7,247.7z M52.1,243.5c0.3,0,0.6-0.1,0.9-0.1c1.4,0,2.8,0.5,4,1.4c1.2,0.9,2.6,1.6,4,2
l0.8,0.2l-0.5,0.7c-0.9,1.3-2.8,2.2-5.7,2.7c-2.1,0.4-4.2-0.4-5.6-2c-0.9-0.9-1.1-2.3-0.4-3.3
C50.2,244.2,51.1,243.6,52.1,243.5z" />
</g>
</g>
</g>
</g>
</g>
</g>
</g>

<g>
<g id="b7_00000063623981688355514730000010846558439170296760_" transform="translate(54.99,166.378)">
<path id="b8_00000025420253109798615230000010798805408832388774_" class="st14" d="M55.3,775.1H35.4c-0.5,0-0.9-0.4-0.9-0.9
c0-0.5,0.4-0.9,0.9-0.9h19.9c0.5,0,0.9,0.4,0.9,0.9C56.2,774.7,55.8,775.1,55.3,775.1z" />
</g>
<g id="b9_00000179645594355925512180000007194134275358852250_" transform="translate(52.855,177.288)">
<path id="ca_00000039114390304690664820000002083332720312407485_" class="st14" d="M53.6,774.1h-16c-0.5,0-0.9-0.4-0.9-0.9
s0.4-0.9,0.9-0.9h16c0.5,0,0.9,0.4,0.9,0.9S54.1,774.1,53.6,774.1z" />
</g>
<g id="cb_00000150784272502848238720000017851090561081379216_" transform="translate(46.45,161.158)">
<path id="cc_00000134962142659199698850000005542765363011907754_" class="st14" d="M46.1,780.3c-0.5,0-0.9-0.4-0.9-0.9v-9.5
c0-0.5,0.4-0.9,0.9-0.9c0.5,0,0.9,0.4,0.9,0.9v9.5C47,779.9,46.6,780.3,46.1,780.3z" />
</g>
<g id="cd_00000042008961035614870850000015726539376165555366_" transform="translate(56.89,171.833)">
<path id="ce_00000005956938658314216480000018360357592855471538_" class="st14" d="M45.2,779.6c-0.5,0-0.9-0.4-0.9-0.9v-9.9
c0-0.5,0.4-0.9,0.9-0.9c0.5,0,0.9,0.4,0.9,0.9v9.9C46.1,779.2,45.7,779.6,45.2,779.6z" />
</g>
<g id="cf_00000093866643518624701110000009880346127942216102_" transform="translate(46.45,182.623)">
<path id="cg_00000165946441742287643940000006550293618316814989_" class="st14" d="M46.1,778.5c-0.5,0-0.9-0.4-0.9-0.9v-9.7
c0-0.5,0.4-0.9,0.9-0.9c0.5,0,0.9,0.4,0.9,0.9v9.7C47,778.1,46.6,778.5,46.1,778.5z" />
</g>
</g>
<g>
<g id="b7_00000012460860222223179270000003644109629317514934_" transform="translate(54.99,166.378)">
<path id="b8_00000155865457742117381470000014468865471933957271_" class="st14" d="M231.4,754.8h-18.7c-0.5,0-0.9-0.4-0.9-0.9
s0.4-0.9,0.9-0.9h18.7c0.5,0,0.9,0.4,0.9,0.9S231.9,754.8,231.4,754.8z" />
</g>
<g id="b9_00000029013260775114743230000003496127288932455045_" transform="translate(52.855,177.288)">
<path id="ca_00000145023678699723629660000013087653548570436523_" class="st14" d="M229.9,753.2h-15.1c-0.5,0-0.9-0.4-0.9-0.9
c0-0.5,0.4-0.9,0.9-0.9h15.1c0.5,0,0.9,0.4,0.9,0.9C230.7,752.8,230.4,753.2,229.9,753.2z" />
</g>
<g id="cb_00000117649124346471016420000017870162594169041340_" transform="translate(46.45,161.158)">
<path id="cc_00000101824183110753965930000005592374502661006015_" class="st14" d="M223.3,760c-0.5,0-0.9-0.4-0.9-0.9v-9
c0-0.5,0.4-0.9,0.9-0.9s0.9,0.4,0.9,0.9v9C224.1,759.6,223.7,760,223.3,760z" />
</g>
<g id="cd_00000065043513100301732380000010179343032881588391_" transform="translate(56.89,171.833)">
<path id="ce_00000056417161866968017690000017027167874377976192_" class="st14" d="M221.8,758.7c-0.5,0-0.9-0.4-0.9-0.9v-9.4
c0-0.5,0.4-0.9,0.9-0.9s0.9,0.4,0.9,0.9v9.4C222.6,758.3,222.3,758.7,221.8,758.7z" />
</g>
<g id="cf_00000176743258148107246280000011981060640015062171_" transform="translate(46.45,182.623)">
<path id="cg_00000016044169988360022110000009180868755051146665_" class="st14" d="M223.3,757c-0.5,0-0.9-0.4-0.9-0.9V747
c0-0.5,0.4-0.9,0.9-0.9s0.9,0.4,0.9,0.9v9.2C224.1,756.7,223.7,757,223.3,757z" />
</g>
</g>
<g>
<g id="b7_00000083084647620095595610000006234409959709596840_" transform="translate(54.99,166.378)">
<path id="b8_00000134239619219259616460000012984766578692766135_" class="st14" d="M149.8,840.6h20.5c0.5,0,0.9,0.4,0.9,0.9
c0,0.5-0.4,0.9-0.9,0.9h-20.5c-0.5,0-0.9-0.4-0.9-0.9C148.9,841,149.3,840.6,149.8,840.6z" />
</g>
<g id="b9_00000009549781434223465070000016520322857238520977_" transform="translate(52.855,177.288)">
<path id="ca_00000152965009490891247060000005838796679058054056_" class="st14" d="M156,819.4h16.5c0.5,0,0.9,0.4,0.9,0.9
c0,0.5-0.4,0.9-0.9,0.9H156c-0.5,0-0.9-0.4-0.9-0.9C155,819.8,155.4,819.4,156,819.4z" />
</g>
<g id="cb_00000083767458487590789940000009106090217360402844_" transform="translate(46.45,161.158)">
<path id="cc_00000130645918196049527660000010688250323329430163_" class="st14" d="M176.6,845.8c0.5,0,0.9,0.4,0.9,0.9v9.8
c0,0.5-0.4,0.9-0.9,0.9s-0.9-0.4-0.9-0.9v-9.8C175.7,846.2,176.1,845.8,176.6,845.8z" />
</g>
<g id="cd_00000021086659093295846570000018209153197426362500_" transform="translate(56.89,171.833)">
<path id="ce_00000086670224914499164860000006074203678543728813_" class="st14" d="M156.4,824.9c0.5,0,0.9,0.4,0.9,0.9v10.2
c0,0.5-0.4,0.9-0.9,0.9s-0.9-0.4-0.9-0.9v-10.2C155.4,825.3,155.9,824.9,156.4,824.9z" />
</g>
<g id="cf_00000038384577703347232110000014758982826270073250_" transform="translate(46.45,182.623)">
<path id="cg_00000098214399880403791400000005483606465267488653_" class="st14" d="M176.6,804.1c0.5,0,0.9,0.4,0.9,0.9v10
c0,0.5-0.4,0.9-0.9,0.9s-0.9-0.4-0.9-0.9v-10C175.7,804.5,176.1,804.1,176.6,804.1z" />
</g>
</g>
<g class="hidden"> <!-- Hidden people-->
<g id="rhand">
<g>
<path class="st24" d="M1616.6,862.1c0,0-2.3-6.1-5-5.5c-2.7,0.6-5.6,2.6-5.6,2.6l-6.7,11.9c0,0,6.2,15.3,18.7-4
c0,0,12.4,2.1,27.9-0.4c-2.3-4.8-3.6-9.6-4.4-13.3C1633.7,857.9,1625.2,861.2,1616.6,862.1z" />
<path class="st23" d="M1681.8,818.5c-1.1,0.7-19.1,23-40.1,34.9c0.8,3.7,2.1,8.5,4.4,13.3c11.8-1.9,25.4-6.6,37-16.9l2.5-31.7
C1685.6,817.9,1683.2,817.5,1681.8,818.5z" />
</g>
</g>
<path class="st23" d="M1704.1,917.2c-3.5-16.5-6.9-26-18.5-57.3c-3.6-9.8-7-19.8-5.4-30.2l1.8-11.6c0,0,22.5-7.6,47.4-0.3
c0,0,19.3,4.8,10.9,88.1C1730,917.6,1717.8,921,1704.1,917.2z" />
<path class="st24" d="M1685.9,803.3l5.8,14.1c0.4,0.9,1.2,1.5,2.1,1.7c3.4,0.6,11.5,1.5,16.8-2c0.6-0.4,0.8-1.3,0.4-1.9
l-10.8-15.5L1685.9,803.3z" />
<g id="headl">
<path class="st33"
d="M1691.9,781.7c-0.2,0.2-10.3,20.1-10.3,20.1l11.4,5.5l12.4-17.4C1705.4,790,1696,777.9,1691.9,781.7z" />
<path class="st24" d="M1700.2,792.1l-5.7,9.6c-0.1,0.1-0.2,0.3-0.3,0.4c-0.7,0.6-3,2.5-4.8,0c-1.5-2.1-3-4.1-4.5-4.9
c-0.9-0.5-2-0.1-2.5,0.8c-0.9,1.9-2.8,5.7-3.9,9.3c-0.3,0.9,0.2,1.9,1.1,2.2c2.3,0.9,6.9,2.6,11,3.2c0.7,0.1,1.3-0.2,1.7-0.7
c1.7-2.4,6.7-9.1,8.4-10.8c1.6-1.6,4.4-1,5.7-0.6c0.5,0.1,1,0.1,1.5-0.2c1.3-0.8,3.6-2.8,1.5-6.1c-0.5-0.8-0.3-1.9,0.6-2.5
c1.5-1,3.1-2.8,1.5-5.8c-1.5-3-4.3-3.3-6.2-3c-0.8,0.1-1.7-0.3-2-1.1c-0.1-0.3-0.4-0.6-0.9-0.7c-1-0.2-1.6-1.1-1.4-2.1
c0.3-1.7,0.1-3.9-2.6-5.4c-4.9-2.7-9.3,1.7-10.4,5.5c-1.1,3.7,4.4,6.4,7.9,6.8c2.6,0.3,3.9,3.1,4.5,4.6
C1700.5,791,1700.5,791.6,1700.2,792.1z" />
<path class="st24"
d="M1698.2,804c0,0,2.5-5.8,5.3-5.6c2.8,0.2,5,3,1.5,6.2C1700.7,808.5,1698.2,804,1698.2,804z" />
</g>
<g>
<path class="st24" d="M1701.9,1062.6c5.4,0.5,14.9,1.2,22.3,1.6c4.5,0.2,7-0.2,8.5-0.8c0,0.2,0,0.3,0,0.5c0,0.8-0.7,1.4-1.5,1.5
c-14.1,0.8-25.2,0.3-29.2,0c-0.8-0.1-1.3-0.9-0.9-1.7C1701.4,1063.2,1701.6,1062.9,1701.9,1062.6z" />
<path class="st24" d="M1724.2,1064.1c-7.4-0.3-16.9-1.1-22.3-1.6c5.3-6.6,22.3-11,22.3-11h4.8c3.3,4.8,3.8,9.3,3.7,11.7
C1731.2,1063.9,1728.7,1064.3,1724.2,1064.1z" />
<path class="st24" d="M1729.8,1043.7l-0.4,8.9c0,1-0.8,1.8-1.7,1.9c-1,0.1-2.2,0.2-3.6-0.3c-0.8-0.3-1.5-1-1.6-1.8l-1.5-8.7
H1729.8z" />
</g>
<g>
<g>
<path class="st24" d="M1792,1064.1c2.4-0.3,3.4-1.6,3.9-2.9c0,0,0,0,0,0c0.3,1.4-0.5,2.8-2.1,3.5c-1.9,0.8-4.1,1-5.7,0.9
c-1.8-0.1-3.4-0.8-4.3-2l0,0C1785.6,1064.5,1788.1,1064.6,1792,1064.1z" />
<path class="st24" d="M1780.9,1043.6h4c6-0.1,9.8,12.6,11,17.6c-0.4,1.3-1.5,2.5-3.9,2.9c-3.9,0.6-6.4,0.4-8.2-0.4
c-3.3-4.3-4.9-10.6-5.6-14.3C1777.3,1045.2,1780.9,1043.6,1780.9,1043.6z" />
</g>
<path class="st24" d="M1784.3,1035.4l2.2,8.8c0.3,1.1-0.2,2.2-1.2,2.7c-1.2,0.6-3,1.3-4.5,1.1c-0.7-0.1-1.4-0.6-1.6-1.3l-3.2-9.2
L1784.3,1035.4z" />
</g>
<path class="st34"
d="M1787,1037.9c-2.7,2.4-11.6,2.8-11.6,2.8c-32-77-45.3-98.3-45.3-98.3c4.6,29.1,1,103.7,1,103.7
c-5.3,2.3-12.1,0-12.1,0c-0.4-47.6-7.1-98.8-15.7-131.5c21.6-0.5,33.4-5.2,37.1-8.2C1758.4,935.6,1787,1037.9,1787,1037.9z" />
<path class="st24" d="M1736.1,873.2c2.2,9.3,2.3,18.3,2,21.6c-0.1,1.2-1.1,2.2-2.4,2.3c-1.4,0.1-3.3,0.2-5,0.3
c-1.9,0.1-4-1.1-5.4-2.1c-0.7-0.5-1.6,0.3-1.2,1.1c0.7,1.4,1.9,2.4,3.1,3.3c0.7,0.5,3.1,1.5,2.9,2.6c-0.1,0.3-0.3,0.6-0.5,0.9
c-1.3,1.6-3.3,2.4-5.3,3c-0.2,0.1-0.5,0.2-0.7,0.3c0,1.3,3.9,2.7,4.9,3c1.5,0.5,3.1,0.7,4.7,0.6c3.9-0.4,7.6-3.1,9.7-6.4
c5.7-8.8,8.6-19.4,9.7-27.5C1747.2,870.9,1739.3,872.2,1736.1,873.2z" />
<path class="st23" d="M1752.5,876c4.2-31.9-20.3-56.4-20.3-56.4l-14.6,17.1c11.1,13.8,16.3,26.5,18.7,36.5
C1739.6,872.2,1747.3,870.7,1752.5,876z" />
<g>
<path class="st24" d="M1538.7,1063.2c0-0.2,0-0.3,0-0.5c-2.3-9.3-14-15.1-14-15.1l-4.6,0.4c-2.7,8.2-2.3,13.3-1.9,15.5
c0,0.1,0,0.1,0,0.2C1522,1063.9,1529.8,1064.2,1538.7,1063.2z" />
<path class="st24" d="M1518.2,1063.6c0.2,0.8,0.8,1.3,1.5,1.5c5.4,1.1,14,0.2,17.6-0.3c0.8-0.1,1.4-0.8,1.4-1.7
C1529.8,1064.2,1522,1063.9,1518.2,1063.6z" />
<path class="st24"
d="M1518.2,1041l2,9.4c0.1,0.7,0.7,1.2,1.3,1.3c0.8,0.1,1.9,0.1,3,0c1-0.1,1.7-1.2,1.5-2.3l-1.4-8.4H1518.2z" />
<path class="st24" d="M1558.6,1063.5c-5.1-0.1-7.7-0.7-9.1-1.3c0,0.5,0,1,0,1.6c0,0.6,0.4,1,1,1l28-0.2c0.9,0,1.4-1,1-1.9
C1575.8,1063,1566.5,1063.7,1558.6,1063.5z" />
<path class="st24" d="M1579.5,1062.7c0-0.1-0.1-0.1-0.1-0.2c-2.5-3.5-8.8-10.4-21.2-13.4l-6-0.2c0,0-2.7,4.6-2.7,13.2
c1.4,0.6,4,1.2,9.1,1.3C1566.5,1063.7,1575.8,1063,1579.5,1062.7z" />
<path class="st24" d="M1550.9,1040.2c0.1,0.4,1.3,7.2,1.8,9.8c0.1,0.6,0.6,1.1,1.2,1.1c1,0.1,2.7,0.1,4.1-0.3
c0.8-0.2,1.3-1,1.2-1.9l-0.7-10.6L1550.9,1040.2z" />
<path class="st34" d="M1546.3,916.2c0,0,8.2,56.6,14.1,123.9c0.1,1.3-0.9,2.3-2.1,2.6c-1.8,0.4-4.5,0.8-6.7,0.8
c-1.2,0-2.2-0.9-2.4-2.1c-2-11.9-16.4-75.6-20.2-89.6c0,0-4.3,59.5-3,90.4c0,0.8-0.5,1.4-1.3,1.5c-1.2,0.1-3,0.2-5.4,0
c-0.9-0.1-1.6-0.8-1.7-1.7c-1.4-10-9.7-69.8-9.3-112.9c0-2.4,2.8-22.4,2.8-22.4L1546.3,916.2z" />
</g>
<path class="st35"
d="M1510.1,919.5c-0.8-0.3-1.4-1.1-1.5-2c-1.1-10.6-6.4-76.5,27-103.6c0,0,1.9-5,17.6,7.3
c15.7,12.3,7.3,25.3,3.5,43.1c-4.6,21.6-12.5,39.2-9,52.5c0.2,0.9-0.2,1.9-1.1,2.2C1534.4,923.6,1522.2,923.8,1510.1,919.5z" />
<path class="st24" d="M1548.5,794.2c0,0.9-13.3,19.9-13.3,19.9s2.4,4.7,13.8,8.6l9.8-20.3L1548.5,794.2z" />
<g>
<path class="st33" d="M1559,783.3c0,0,4.7,10.9,5.1,16.7c0.3,5.7,1.5,9.5-5.1,10.6c-6.6,1.2-12.2-2.1-15.2-7.9
c0,0-4.7-8.8-3.7-12.4C1541.2,786.7,1559,783.3,1559,783.3z" />
<path class="st24" d="M1546.1,798.6l0.4-0.2c0.5-0.2,0.7-0.8,0.4-1.2c-0.9-1.8-2.7-5.9-0.4-6.9c3-1.2,15-3.7,17.6-8
c2.5-4.1,0.3-9.4-3-10.9c-0.2-0.1-0.5,0-0.6,0.2l-0.3,0.5c-0.2,0.4-0.7,0.3-0.8-0.1l0,0c-0.1-0.4-0.6-0.4-0.8-0.1
c-0.8,1.3-2.9,3.3-8.7,4.4c-8.1,1.5-13.5,4.8-13.7,10.5c0,0.4-0.4,0.6-0.7,0.4c-0.6-0.4-1.6-0.5-2.8,0.5
c-2.2,1.9-1.3,6.8,3.6,10.8c0.2,0.2,0.2,0.6,0,0.7c-0.9,0.6-2.2,2,1.2,3.8c3.6,1.9,6.2,1.7,7.2,1.6c0.3,0,0.4-0.3,0.4-0.5l-1.1-5
c-0.1-0.3,0.2-0.5,0.4-0.5H1546.1z" />
<path class="st24" d="M1546.3,799.7c0,0-1.8-7-4.9-5c-3.1,2,1.6,7.8,4.1,8.1L1546.3,799.7z" />
</g>
<g>
<path class="st35" d="M1558.2,827l0.9,24.7c2.6,0.9,5.1,1.6,7.5,2.1c1.5-4.8,4.7-10.6,7.4-15C1564.2,835.4,1558.2,827,1558.2,827
z" />
<path class="st24" d="M1607.1,826.6c-13.4,14.6-24.3,15.4-33.1,12.3c-2.7,4.4-5.9,10.2-7.4,15c35.9,7.9,44.3-25.2,44.3-25.2
L1607.1,826.6z" />
<path class="st24"
d="M1609.8,825c0,0,1.5-1.7,4.4-1.1c2.9,0.5,5.4,1.5,7.2,0c1.8-1.5,2.4,0.5,2.4,0.5l-5.3,4.1L1609.8,825z" />
<path class="st24" d="M1606.6,827.9c0,0,1.1-4.5,4.3-3.8s10.4,4.6,12.3,3.8c1.9-0.7,4.3-2.5,5.5-1.9l-2.2,2.7
c0,0,5.6-3.2,6.5-1.2l-9.2,5.2C1623.8,832.7,1610.3,831.3,1606.6,827.9z" />
</g>
<polygon class="st36" points="1553.3,825.9 1556.4,825.5 1562.3,832.7 1560,843.9 1557.7,840.9         " />
<g id="lhand">
<path class="st24" d="M1543.3,859.4c0,0,25.3,21.2,52.5,12c1.7-0.6,3.5-0.4,5.1,0.4l7.8,4.2c3.3,1.7,7.4,0.6,9.3-2.6
c1.1-1.8,2-3.9,2.2-5.9c0,0-14.8-5.1-15.3-6.2c-0.5-1.1,1.1-1.2,1.1-1.9c0-0.7-7.5-0.6-9.4,4.8c0,0-14.3,6-38.3-20.6
C1558.3,843.4,1547.4,852.7,1543.3,859.4z" />
<path class="st37"
d="M1541.9,859.2c-0.1,0-0.2,0-0.2-0.1c-10.6-7.2-15.6-18.9-15.7-19c-0.1-0.2,0-0.5,0.2-0.6
c0.2-0.1,0.5,0,0.6,0.2c0,0.1,5,11.5,15.4,18.6c0.2,0.1,0.2,0.4,0.1,0.6C1542.2,859.1,1542.1,859.2,1541.9,859.2z" />
<path class="st37" d="M1557.8,843c-0.1,0-0.3-0.1-0.4-0.2c0,0-3.3-5.1-9.5-16.2c-1.9-3.4-4.4-5.6-7.4-6.4c-5-1.4-9.8,1.3-9.9,1.3
c-0.2,0.1-0.5,0-0.6-0.2c-0.1-0.2,0-0.5,0.2-0.6c0.2-0.1,5.2-2.9,10.5-1.4c3.3,0.9,5.9,3.2,8,6.9c6.2,11.1,9.4,16.2,9.4,16.2
c0.1,0.2,0.1,0.5-0.1,0.6C1557.9,843,1557.9,843,1557.8,843z" />
<path class="st36"
d="M1526,827.3c0,0,3.1-5.2,4.6-5.9c1.6-0.7,7.4-2.3,11.2-0.9s8.5,11.2,8.5,11.2l7,11.6l-7.3,6.8L1526,827.3z" />
</g>
<path class="st22" d="M1717.3,821.8c0.7-0.3,14-2.3,14-2.3l3.7,6.3l-8.8,13.9l-12.9-4L1717.3,821.8z" />
<path class="st22" d="M1680.3,821.7c1.2-3.3,4.6-3.5,4.6-3.5l2.5,29.6l-10,4.1l-0.9-16.9L1680.3,821.7z" />
<path class="st6" d="M1603.3,831.6l4.7-5l2.1,1.5c0,0-0.4,2.6-0.5,2.6s-2.6,3.3-2.6,3.3L1603.3,831.6z" />
</g>
<g id="aeb_00000145059120862952572250000012522487591555889570_" transform="translate(143.43,157.409)">
<path id="aec_00000149355102455390340210000016862323485269156004_" class="st14" d="M171.9,906.2c0.4,0.7,0.7,1.5,0.8,2.3
l-1.1,0.2l-1.1,0.2c0,0-0.5-2.8-2.5-3.7c-1.5-0.7-3.5-0.3-6,1.1c-0.8,0.4-1.7,0.5-2.6,0.2c-1.1-0.4-2.1-1.1-2.7-2.2
c-1.4-2.8-3.2-5.4-5.3-7.7c-1.4-1.6-3.3-2.7-5.4-3.1c-3.3-0.5-7.1,1.6-11.5,6.3c-0.7,0.7-1.7,0.9-2.7,0.7
c-0.7-0.1-1.2-0.6-1.5-1.3c-0.8-2.4-2.1-4.6-3.8-6.5c-2.8-3.2-5.4-4.1-7-4.3c-1.9-0.2-3.9,0.2-5.5,1.3c-2.6,1.8-4.7,4.2-6.3,6.9
l-1.8-1.1c1.7-3,4.1-5.6,6.9-7.6c2-1.4,4.5-1.9,6.9-1.6c3.7,0.5,6.6,3,8.3,5c1.9,2.1,3.3,4.5,4.2,7.1c0.2,0,0.4,0,0.6-0.1
c4.9-5.2,9.3-7.5,13.3-6.9c4.4,0.6,8.2,4.4,12.2,11.9c0.3,0.5,0.8,1,1.4,1.1c0.3,0.1,0.6,0.1,0.9-0.1c3.1-1.8,5.8-2.1,7.9-1.1
C170.3,903.9,171.3,904.9,171.9,906.2z" />
</g>

<linearGradient id="SVGID_00000105417226226937268070000011085783861454865843_" gradientUnits="userSpaceOnUse"
x1="348.1866" y1="1054.3447" x2="367.0675" y2="1054.3447">
<stop offset="0" style="stop-color:#F7F6F6" />
<stop offset="0.215" style="stop-color:#F7F6F6" />
<stop offset="0.43" style="stop-color:#F7F6F6" />
<stop offset="0.715" style="stop-color:#FBFAFA" />
<stop offset="1" style="stop-color:#FFFFFF" />
</linearGradient>

<ellipse style="fill:url(#SVGID_00000105417226226937268070000011085783861454865843_);" cx="357.6" cy="1054.3"
rx="9.4" ry="9.1" />
<g id="ij_00000117647898938161905270000003268115431526333062_"
transform="translate(555.33,647.87) translate(-162.58,-6.38)">
<g id="ik_00000104692250527136376410000008958318852034330022_" transform="translate(162.58,6.38)">
<path id="il_00000145771959144606922680000005460220588136880041_" class="st14" d="M42.6,388.8l-14.5,0.4
c-0.7,0-1.2-0.5-1.2-1.2s0.5-1.2,1.2-1.2l102-0.4c1.4-4.3,3.6-7.2,6.6-8.4c2.3-1,4.9-1.2,7.4-0.5c1.9,0.5,3.8,1.2,5.6,2l0.9,0.4
c4.5-4.1,9.1-5.7,13.8-5c2.3,0.4,4.5,1.3,6.5,2.5c1.8,1.2,3.4,2.5,4.8,4.1c1.4,1.5,2.7,3.2,3.8,4.9h11.1c0.7,0,1.2,0.5,1.2,1.2
s-0.5,1.2-1.2,1.2H178l-0.3-0.6c-1.1-1.8-2.4-3.5-3.8-5.1c-2.2-2.4-5.7-5.2-9.9-5.9s-8.2,1-12.2,4.8c-0.5,0.4-1.2,0.5-1.8,0.2
c-0.3-0.1-0.8-0.3-1.3-0.5c-2.5-1.2-7.2-3.3-11-1.5c-2.5,1.1-4.3,3.8-5.5,7.8l-0.2,0.8H131L42.6,388.8z" />
</g>
</g>
</g>
</svg>
