<svg viewBox="0 0 60 60" xmlns="http://www.w3.org/2000/svg">
<circle cx="30" cy="30" r="28" fill="#FFE1D6"/>
<path d="M18.18,10.07l-2.43,1.81.86-2.9-2.47-1.75,3.02-.08.9-2.89,1.01,2.85,3.02-.03-2.4,1.84.96,2.87-2.49-1.72h0ZM9.33,17.6l-2.45,1.79.88-2.89-2.45-1.77,3.03-.06.93-2.88.99,2.86h3.03s-2.41,1.81-2.41,1.81l.95,2.88-2.48-1.73h0ZM6.47,28.26l.98,2.86-2.5-1.7-2.42,1.81.85-2.91-2.47-1.74,3.02-.09.89-2.89,1.02,2.85,3.03-.05-2.39,1.86h0ZM8.47,40.28l.95,2.87-2.48-1.73-2.44,1.79.88-2.9-2.46-1.77,3.03-.06.92-2.88.99,2.86,3.02-.02-2.41,1.83h0ZM14.58,48.21l3.03.07-2.46,1.77.87,2.9-2.44-1.8-2.49,1.72.95-2.87-2.41-1.84,3.02.03,1-2.86.91,2.88h0ZM41.84,10.06l2.43,1.81-.86-2.9,2.47-1.76-3.03-.08-.9-2.89-1.01,2.85-3.03-.04,2.4,1.85-.97,2.87,2.49-1.72h0ZM50.7,17.6l2.44,1.79-.88-2.89,2.45-1.77-3.03-.06-.93-2.88-.99,2.86h-3.03s2.42,1.81,2.42,1.81l-.95,2.88,2.49-1.73h0ZM53.55,28.26l-.98,2.86,2.5-1.7,2.42,1.81-.85-2.91,2.47-1.74-3.03-.09-.89-2.89-1.02,2.85-3.02-.05,2.39,1.86h0ZM51.55,40.28l-.95,2.87,2.48-1.73,2.44,1.79-.87-2.9,2.46-1.77-3.03-.06-.92-2.88-.99,2.86-3.03-.02,2.41,1.83h0ZM45.44,48.21l-3.03.07,2.46,1.77-.87,2.9,2.44-1.8,2.49,1.72-.95-2.87,2.41-1.84-3.02.03-1-2.86-.91,2.88h0ZM25.27,53.79h3.02s-2.41,1.82-2.41,1.82l.95,2.88-2.48-1.73-2.44,1.79.88-2.9-2.45-1.77,3.03-.06.92-2.88.99,2.85h0ZM35.42,53.66l.94-2.87.97,2.86h3.03s-2.43,1.82-2.43,1.82l.93,2.88-2.47-1.75-2.45,1.78.9-2.9-2.45-1.78,3.03-.04h0ZM27.04,15.85c-1.77,0-3.21.74-4.31,2.21-1.1,1.47-1.65,3.87-1.65,7.2,0,3.61.56,6.1,1.69,7.49,1.13,1.38,2.52,2.07,4.19,2.07,1.16,0,2.19-.31,3.07-.94.88-.63,1.58-1.62,2.11-2.99.52-1.36.78-3.15.78-5.37,0-2.42-.25-4.31-.74-5.67-.49-1.36-1.19-2.36-2.1-3.02-.91-.65-1.92-.98-3.04-.98h0ZM26.82,14.8c1.7,0,3.29.45,4.78,1.34,1.49.9,2.65,2.15,3.49,3.75.84,1.6,1.26,3.41,1.26,5.42s-.42,3.82-1.27,5.44c-.85,1.62-2.01,2.88-3.48,3.78-1.48.9-3.04,1.36-4.7,1.36s-3.14-.44-4.55-1.33c-1.42-.89-2.56-2.15-3.42-3.8-.86-1.65-1.29-3.48-1.29-5.49s.42-3.77,1.25-5.37c.83-1.59,1.97-2.84,3.42-3.75,1.45-.9,2.95-1.36,4.51-1.36h0Z" fill="#899097"/>
<path d="M30.01,34.12h2.39c1.6,0,2.85-.3,3.76-.91.9-.6,1.36-1.68,1.36-3.22,0-1.06-.17-1.9-.51-2.52-.34-.62-.79-1.04-1.34-1.27-.55-.23-1.64-.34-3.27-.34-1.07,0-1.74.08-1.99.23-.25.15-.38.41-.38.77v7.26ZM23.86,24.85h10.42c2.02,0,3.58.46,4.7,1.38,1.11.92,1.67,2.12,1.67,3.61,0,.89-.22,1.68-.66,2.38-.44.7-1.08,1.25-1.91,1.66-.83.41-2.14.71-3.92.89,1.3.36,2.19.7,2.68,1.04.49.34.88.78,1.18,1.32.29.54.64,1.64,1.02,3.31.28,1.19.57,2,.88,2.44.24.34.49.5.76.5s.54-.21.78-.62c.24-.41.39-1.14.44-2.19h.93c-.17,3.09-1.31,4.64-3.42,4.64-.66,0-1.24-.17-1.72-.5-.49-.34-.85-.83-1.1-1.49-.19-.49-.4-1.78-.64-3.86-.14-1.21-.35-2.07-.65-2.58-.29-.51-.76-.92-1.38-1.23-.63-.31-1.38-.46-2.25-.46h-1.65v7.92c0,.34.09.57.26.71.22.17.56.26,1.02.26h1.94v1.02h-9.37v-1.02h1.98c.44,0,.76-.09.96-.26.2-.17.31-.41.31-.71v-16.12c0-.35-.11-.6-.31-.78-.21-.17-.53-.26-.95-.26h-1.98v-1.02h0ZM29.65,6.82l-2.46,1.76.92-2.89-2.44-1.8,3.03-.02.96-2.87.96,2.87,3.02.02-2.43,1.8.91,2.89-2.46-1.76h0Z" fill="#899097"/>
</svg>