<svg xmlns="http://www.w3.org/2000/svg" version="1.1" viewBox="0 0 25 24">
  <path d="M12.33,23.5c6.35,0,11.5-5.15,11.5-11.5S18.68.5,12.33.5.83,5.65.83,12s5.15,11.5,11.5,11.5Z" fill="none" stroke="currentColor"/>
  <path d="M17.06,11.14c.15.09.27.21.36.37.09.15.13.32.13.49s-.04.34-.13.49c-.09.15-.21.28-.36.36l-5.74,3.43c-.15.09-.32.14-.5.14-.18,0-.35-.04-.5-.13-.15-.09-.28-.21-.37-.37-.09-.15-.14-.33-.14-.5v-6.85c0-.18.05-.35.13-.5.09-.15.22-.28.37-.37.15-.09.33-.13.51-.13.18,0,.35.05.5.14l5.74,3.43Z" fill="currentColor"/>
</svg>