<svg xmlns="http://www.w3.org/2000/svg" version="1.1" viewBox="0 0 110 110">
  <path d="M55,8.69c-25.53,0-46.31,20.77-46.31,46.31s20.77,46.31,46.31,46.31,46.31-20.77,46.31-46.31S80.53,8.69,55,8.69ZM55,97.69c-23.54,0-42.69-19.15-42.69-42.69S31.46,12.31,55,12.31s42.69,19.15,42.69,42.69-19.15,42.69-42.69,42.69ZM78.38,51.08l-34.19-19.74h0c-1.42-.82-3.11-.82-4.52,0-1.42.82-2.26,2.28-2.26,3.92v39.48c0,1.64.84,3.1,2.26,3.92.71.41,1.49.61,2.26.61s1.55-.2,2.26-.61l34.19-19.74c1.42-.82,2.26-2.28,2.26-3.92s-.85-3.1-2.26-3.92ZM76.57,55.78l-34.19,19.74c-.31.18-.6.18-.9,0-.3-.18-.45-.43-.45-.78v-39.48c0-.35.15-.61.45-.78.15-.09.3-.13.45-.13s.3.04.45.13l34.19,19.74c.3.18.45.43.45.78s-.15.61-.45.78Z" fill="currentColor"/>
</svg>