<svg version="1.1" xmlns="http://www.w3.org/2000/svg" viewBox="0 0 74 91">
<ellipse fill="#FFE1D6" cx="40.2" cy="13.4" rx="13.5" ry="13.4"/>
<path fill="#899097" d="M74,60.8c0-15.7-11.5-29.4-33.8-29.4c-6.8,0-12.6,1.3-17.4,3.5c-3.6-1.8-9.5-3.8-15.8-1.5c-0.1,0-0.2,0.1-0.2,0.3c0,0.1-0.6,6.5,3.6,12.1c-1.7,2.8-2.8,5.8-3.5,9l-4,1.1c-2.1,0.6-3.4,2.8-2.8,4.9L3,71.2c0.9,3.2,2.9,4.4,7.4,4.2h0.8c1.3,1.9,2.9,3.6,4.7,5.2l1.3,8.6c0,1,0.8,1.8,1.9,1.8h5.7c1,0,1.9-0.8,1.9-1.8L27,87c4.1,1.5,8.6,2.3,13.4,2.3c5.3,0,10.3-1,14.7-2.8l0.4,2.7c0,1,0.8,1.8,1.9,1.8h5.7c1,0,1.9-0.8,1.9-1.8L66.2,79C71.1,74.1,74,67.7,74,60.8z"/>
<ellipse fill="#FFFFFF" cx="18.5" cy="54.1" rx="2" ry="2"/>
<path fill="#FFFFFF" d="M50,39.5c-10-3.4-19.1-0.1-19.2,0l-1-2.6c0.4-0.2,10.1-3.7,21.1,0L50,39.5z"/>
</svg>