<svg width="19" height="19" viewBox="0 0 19 19" xmlns="http://www.w3.org/2000/svg" aria-hidden="true" role="none" title="Zillow">
<path d="M12.15,5.86c.08-.02.11,0,.16.06.26.32,1.09,1.41,1.32,1.71,0,.01.01.02.02.04,0,.01,0,.03,0,.04,0,.01,0,.03-.01.04,0,.01-.02.02-.03.03-1.7,1.45-3.24,3.08-4.6,4.86-.02.03,0,.03.01.03,2.59-1.08,5.27-1.94,8.01-2.57v-2.64L9.51,1.04,1.97,7.47v2.88c3.22-1.86,6.63-3.37,10.18-4.48h0ZM5.87,16.89s.05.04.08.05c.03,0,.06,0,.09-.02,3.51-1.71,7.2-3.02,11-3.91v5.91H1.97v-6.14c2.32-1.29,4.73-2.43,7.2-3.41.03-.01.04,0,.01.03-1.8,1.63-3.39,3.49-4.71,5.53-.05.08-.05.11,0,.16l1.4,1.81Z" fill="currentcolor"/>
</svg>