<svg width="19" height="19" viewBox="0 0 19 19" fill="none" xmlns="http://www.w3.org/2000/svg" aria-hidden="true" role="none" title="Instagram">
<path d="M13.1115 0.753906H5.00447C3.68082 0.755758 2.4119 1.2824 1.47594 2.21837C0.539968 3.15434 0.0133264 4.42325 0.0114746 5.74691L0.0114746 13.8539C0.0133264 15.1776 0.539968 16.4465 1.47594 17.3824C2.4119 18.3184 3.68082 18.8451 5.00447 18.8469H13.1115C14.4353 18.8453 15.7045 18.3188 16.6407 17.3828C17.5768 16.4468 18.1036 15.1777 18.1055 13.8539V5.74691C18.1036 4.42308 17.5768 3.15401 16.6407 2.21801C15.7045 1.28202 14.4353 0.755494 13.1115 0.753906V0.753906ZM16.4995 13.8539C16.4984 14.7521 16.1411 15.6133 15.506 16.2484C14.8708 16.8836 14.0097 17.2408 13.1115 17.2419H5.00447C4.10625 17.2408 3.24511 16.8836 2.60997 16.2484C1.97482 15.6133 1.61753 14.7521 1.61647 13.8539V5.74691C1.61753 4.84868 1.97482 3.98754 2.60997 3.3524C3.24511 2.71725 4.10625 2.35996 5.00447 2.35891H13.1115C14.0097 2.35996 14.8708 2.71725 15.506 3.3524C16.1411 3.98754 16.4984 4.84868 16.4995 5.74691V13.8539Z" fill="currentColor"></path>
<path d="M9.05845 5.14258C8.13719 5.14258 7.23661 5.41577 6.47061 5.92759C5.7046 6.43942 5.10758 7.1669 4.75502 8.01804C4.40247 8.86917 4.31023 9.80575 4.48996 10.7093C4.66969 11.6129 5.11332 12.4428 5.76475 13.0943C6.41618 13.7457 7.24616 14.1893 8.14972 14.3691C9.05329 14.5488 9.98985 14.4566 10.841 14.104C11.6921 13.7515 12.4196 13.1544 12.9314 12.3884C13.4433 11.6224 13.7165 10.7218 13.7165 9.80058C13.7151 8.5656 13.224 7.38159 12.3507 6.50834C11.4774 5.63508 10.2934 5.1439 9.05845 5.14258ZM9.05845 12.8546C8.45443 12.8546 7.86397 12.6755 7.36174 12.3399C6.85951 12.0043 6.46807 11.5273 6.23692 10.9693C6.00577 10.4112 5.94529 9.79719 6.06313 9.20477C6.18097 8.61235 6.47184 8.06818 6.89895 7.64107C7.32606 7.21396 7.87023 6.9231 8.46265 6.80526C9.05506 6.68742 9.66912 6.7479 10.2272 6.97905C10.7852 7.2102 11.2622 7.60164 11.5978 8.10387C11.9333 8.60609 12.1125 9.19655 12.1125 9.80058C12.1114 10.6102 11.7893 11.3864 11.2168 11.9589C10.6443 12.5314 9.8681 12.8535 9.05845 12.8546Z" fill="currentColor"></path>
<path d="M13.9165 3.77734C13.6439 3.77736 13.3798 3.87187 13.1692 4.04477C12.9585 4.21768 12.8143 4.45828 12.7612 4.72558C12.708 4.99288 12.7492 5.27034 12.8777 5.51069C13.0061 5.75104 13.214 5.93941 13.4658 6.04369C13.7176 6.14798 13.9977 6.16173 14.2585 6.08261C14.5193 6.00348 14.7446 5.83638 14.896 5.60977C15.0474 5.38316 15.1156 5.11106 15.0888 4.83984C15.0621 4.56862 14.9422 4.31505 14.7495 4.12234C14.5282 3.90189 14.2288 3.77788 13.9165 3.77734Z" fill="currentColor"></path>
</svg>