<svg width="19" height="19" viewBox="0 0 19 19" fill="none" xmlns="http://www.w3.org/2000/svg" aria-hidden="true" role="none" title="LinkedIn">
<path d="M4.61,18.92V7.36H.77v11.56h3.84,0ZM2.69,5.79c.57,0,1.11-.23,1.51-.64.4-.4.62-.95.62-1.52s-.23-1.11-.63-1.52c-.4-.4-.95-.63-1.52-.63s-1.11.23-1.52.63c-.4.4-.63.95-.63,1.52,0,.57.22,1.12.62,1.52.4.4.95.63,1.51.64h.02ZM6.74,18.92h3.84v-6.46c-.01-.32.03-.63.13-.94.14-.41.41-.76.76-1.01.35-.25.77-.39,1.21-.39,1.39,0,1.95,1.06,1.95,2.61v6.18h3.84v-6.63c0-3.55-1.9-5.2-4.42-5.2-.7-.03-1.4.14-2.02.48-.62.34-1.12.85-1.47,1.46h.03v-1.68h-3.84c.05,1.08,0,11.56,0,11.56Z" fill="currentColor"/>
</svg>