<?xml version="1.0" encoding="UTF-8"?><svg id="a" xmlns="http://www.w3.org/2000/svg" viewBox="0 0 305.22 305.22"><g id="b"><path d="M305.22,132.19v75.75c-.16-.28-.43-.54-.47-.83-.1-.65.02-1.34-.14-1.97-.96-3.77-1.76-7.61-3.02-11.28-2.08-6.05-5.42-11.43-9.72-16.18-4.21-4.65-9.13-8.38-14.87-11-4.84-2.21-9.89-3.64-15.17-3.98-8.05-.51-15.9.53-23.46,3.52-5.17,2.04-9.92,4.75-14.26,8.19-.71.56-1.17.63-2.02.06-3.26-2.2-6.52-4.47-9.99-6.31-5.19-2.74-10.79-4.34-16.64-5.08-7.44-.95-14.77-.64-21.92,1.81-8.51,2.91-15.54,7.94-21.17,14.96-7.6,9.47-11.18,20.42-11.48,32.41-.11,4.57.44,9.21,1.25,13.72,1.1,6.21,3.31,12.12,6.16,17.76,4.22,8.36,9.58,15.95,16.15,22.6,4.39,4.45,8.99,8.72,13.77,12.73,4.28,3.58,8.84,6.84,13.47,9.96,4.46,3,9.09,5.78,13.79,8.4,4.65,2.59,9.49,4.86,14.24,7.29.18.09.29.33.43.5h-70.49c.15-.16.26-.39.45-.48.96-.46,1.98-.8,2.9-1.32,6.36-3.66,7.65-12.8,2.61-18.13-2.52-2.66-5.56-3.89-9.24-3.88-40.23.03-80.46.02-120.68.02q-1.64,0-1.64-1.62c0-47.85,0-95.7-.02-143.55,0-.96.28-1.64,1-2.24,3.25-2.71,6.48-5.46,9.73-8.16,5-4.15,10.02-8.26,15.01-12.42,5.37-4.48,10.69-9.01,16.06-13.49,6.22-5.19,12.46-10.35,18.68-15.53,5.09-4.24,10.15-8.49,15.24-12.73,5.69-4.74,11.39-9.45,17.07-14.19,5.27-4.4,10.51-8.84,15.78-13.24,6.4-5.36,12.82-10.69,19.21-16.06.72-.6,1.26-.58,1.93.03.84.78,1.74,1.51,2.62,2.25,4.11,3.42,8.22,6.83,12.32,10.26,3.88,3.24,7.74,6.51,11.62,9.76,4.13,3.45,8.29,6.88,12.42,10.33,4.23,3.53,8.44,7.09,12.67,10.62,4.14,3.45,8.3,6.86,12.44,10.31,5.65,4.71,11.28,9.46,16.93,14.17,5.21,4.34,10.45,8.66,15.65,13,5.27,4.4,10.51,8.84,15.78,13.24,6.28,5.24,12.65,10.38,18.85,15.72,6.76,5.82,16.51,3.45,19.58-4.9.11-.29.4-.52.61-.77Z" fill="#fff" stroke-width="0"/><path d="M305.22,130.76c0,.7-.1,1.42-.5,1.99-.05.07-.08.14-.11.21-3.06,8.35-12.82,10.72-19.58,4.9-6.2-5.34-12.57-10.48-18.85-15.72-5.27-4.4-10.51-8.84-15.78-13.24-5.21-4.35-10.44-8.66-15.65-13-5.65-4.71-11.28-9.46-16.93-14.17-4.14-3.45-8.3-6.86-12.44-10.31-4.23-3.53-8.44-7.09-12.67-10.62-4.13-3.45-8.29-6.88-12.42-10.33-3.88-3.24-7.74-6.51-11.62-9.76-4.1-3.43-8.22-6.84-12.32-10.26-.88-.74-1.78-1.46-2.62-2.25-.67-.61-1.21-.64-1.93-.03-6.39,5.37-12.81,10.7-19.21,16.06-5.27,4.41-10.51,8.84-15.78,13.24-5.68,4.74-11.39,9.45-17.07,14.19-5.09,4.24-10.15,8.49-15.24,12.73-6.22,5.18-12.47,10.34-18.68,15.53-5.36,4.48-10.69,9.01-16.06,13.49-4.99,4.16-10.02,8.27-15.01,12.42-3.26,2.71-6.48,5.46-9.73,8.16-.72.6-1,1.28-1,2.24.02,47.85.02,95.7.02,143.55q0,1.62,1.64,1.62c40.23,0,80.46.01,120.68-.02,3.68,0,6.72,1.22,9.24,3.88,5.05,5.33,3.76,14.47-2.61,18.13-.92.53-1.94.87-2.9,1.32-.18.09-.3.32-.45.48H10.5c-.64,0-1.31-.08-1.84-.44-.06-.04-.12-.07-.18-.09-4.35-1.38-8.25-6.14-8.25-11.02.03-54.94.03-109.88,0-164.82,0-2.06.69-3.83,1.6-5.59,1.16-2.23,3.15-3.65,5.01-5.2,4.2-3.5,8.38-7.03,12.58-10.53,5.15-4.29,10.31-8.55,15.46-12.84,4.36-3.63,8.71-7.27,13.07-10.9,3.54-2.95,7.07-5.9,10.61-8.84,3.79-3.15,7.59-6.3,11.38-9.46,4.04-3.37,8.09-6.73,12.12-10.11,4.44-3.73,8.85-7.49,13.3-11.21,4.01-3.35,8.06-6.63,12.07-9.98,5.27-4.4,10.51-8.84,15.78-13.24,6.31-5.27,12.62-10.54,18.96-15.78,2.3-1.9,4.41-4.12,7.52-4.78.09-.02.14-.26.2-.4,1.9,0,3.79,0,5.69,0,.18.17.34.4.56.51,1.3.68,2.73,1.18,3.91,2.03,1.96,1.42,3.75,3.07,5.62,4.62,5.21,4.34,10.42,8.68,15.63,13.02,4.32,3.61,8.64,7.22,12.97,10.82,4.1,3.42,8.21,6.84,12.31,10.26,3.79,3.16,7.56,6.33,11.35,9.49,4.99,4.16,10,8.29,14.98,12.45,4.8,4,9.58,8.02,14.37,12.03,4.73,3.95,9.47,7.89,14.2,11.84,3.79,3.16,7.56,6.33,11.35,9.49,4.58,3.81,9.17,7.62,13.75,11.43,4.2,3.5,8.35,7.07,12.59,10.5,2.51,2.03,4.74,4.2,5.6,7.44.04.14.29.21.45.32v4.51Z" fill="#f8a17f" stroke-width="0"/><path d="M220.13,305.22c-.14-.17-.25-.41-.43-.5-4.75-2.43-9.59-4.7-14.24-7.29-4.7-2.62-9.33-5.4-13.79-8.4-4.63-3.12-9.2-6.38-13.47-9.96-4.79-4.01-9.39-8.28-13.77-12.73-6.57-6.65-11.92-14.24-16.15-22.6-2.85-5.64-5.06-11.55-6.16-17.76-.8-4.51-1.36-9.16-1.25-13.72.3-11.99,3.88-22.95,11.48-32.41,5.63-7.01,12.66-12.04,21.17-14.96,7.15-2.45,14.47-2.76,21.92-1.81,5.85.74,11.45,2.34,16.64,5.08,3.47,1.84,6.72,4.1,9.99,6.31.85.57,1.31.5,2.02-.06,4.35-3.44,9.1-6.14,14.26-8.19,7.57-2.99,15.41-4.04,23.46-3.52,5.29.34,10.34,1.76,15.17,3.98,5.74,2.63,10.65,6.35,14.87,11,4.3,4.74,7.64,10.12,9.72,16.18,1.26,3.67,2.06,7.51,3.02,11.28.16.63.04,1.32.14,1.97,0,.06.03.12.05.17.23.55.42,1.12.42,1.71v10.33c-.15.11-.42.21-.43.34-.08.7-.03,1.41-.13,2.1-.82,5.55-2.24,10.95-4.31,16.16-2.6,6.53-6.02,12.64-10.2,18.27-4.16,5.62-8.68,10.99-13.98,15.6-4.47,3.88-8.86,7.89-13.63,11.36-6.04,4.39-12.34,8.45-18.7,12.37-5.7,3.51-11.52,6.85-17.79,9.29-.11.04-.15.26-.22.4h-5.69ZM187.48,186.44c-.23,0-.46.01-.69.04-1.11.15-2.97.3-4.72.82-5.35,1.61-9.56,4.89-12.64,9.53-4.91,7.39-5.63,15.55-4.04,24.03.75,3.97,2.22,7.71,3.98,11.36,3.14,6.51,7.39,12.24,12.3,17.47,2.75,2.94,5.77,5.63,8.76,8.34,5.71,5.19,12.05,9.55,18.53,13.68,4.29,2.74,8.79,5.16,13.22,7.66.44.25,1.27.28,1.69.03,6.45-3.86,12.99-7.58,19.25-11.73,8.6-5.7,16.41-12.39,23.21-20.19,3.61-4.14,6.82-8.55,9.39-13.41,3.54-6.7,5.77-13.7,5.63-21.3-.11-5.72-1.7-11.37-4.91-16.11-5.26-7.76-13.16-11.29-22.56-9.96-8.88,1.25-16.02,5.68-21.41,12.86-4.76,6.33-14.07,6.31-18.9.04-1.57-2.04-3.37-3.95-5.31-5.64-5.67-4.92-12.34-7.34-20.78-7.54Z" fill="#f8a17f" stroke-width="0"/><path d="M149.89,0c-.07.14-.11.38-.2.4-3.1.65-5.22,2.88-7.52,4.78-6.34,5.24-12.65,10.5-18.96,15.78-5.27,4.4-10.51,8.84-15.78,13.24-4.01,3.34-8.06,6.63-12.07,9.98-4.45,3.72-8.86,7.48-13.3,11.21-4.03,3.38-8.08,6.75-12.12,10.11-3.79,3.16-7.59,6.3-11.38,9.46-3.54,2.94-7.07,5.89-10.61,8.84-4.36,3.63-8.71,7.27-13.07,10.9-5.15,4.28-10.32,8.55-15.46,12.84-4.2,3.5-8.38,7.02-12.58,10.53-1.86,1.55-3.85,2.97-5.01,5.2-.91,1.76-1.6,3.53-1.6,5.59.03,54.94.03,109.88,0,164.82,0,4.88,3.89,9.64,8.25,11.02.25.08.45.35.67.53H3.96c-2.19,0-3.96-1.77-3.96-3.96V3.96C0,1.77,1.77,0,3.96,0c48.64,0,97.28,0,145.93,0Z" fill="#fff" stroke-width="0"/><path d="M305.22,126.25c-.15-.11-.41-.18-.45-.32-.86-3.24-3.09-5.41-5.6-7.44-4.25-3.44-8.4-7-12.59-10.5-4.58-3.82-9.17-7.62-13.75-11.43-3.79-3.16-7.57-6.33-11.35-9.49-4.73-3.95-9.47-7.89-14.2-11.84-4.79-4-9.57-8.03-14.37-12.03-4.99-4.16-9.99-8.29-14.98-12.45-3.79-3.16-7.56-6.33-11.35-9.49-4.1-3.42-8.21-6.84-12.31-10.26-4.32-3.61-8.64-7.22-12.97-10.82-5.21-4.34-10.42-8.68-15.63-13.02-1.86-1.55-3.66-3.2-5.62-4.62-1.17-.85-2.6-1.35-3.91-2.03-.22-.11-.37-.34-.56-.51,48.54,0,97.08,0,145.68,0,2.19,0,3.96,1.77,3.96,3.96v122.28Z" fill="#fff" stroke-width="0"/><path d="M225.82,305.22c.07-.14.11-.36.22-.4,6.27-2.44,12.09-5.78,17.79-9.29,6.36-3.92,12.66-7.98,18.7-12.37,4.77-3.47,9.16-7.48,13.63-11.36,5.3-4.61,9.82-9.97,13.98-15.6,4.17-5.63,7.6-11.74,10.2-18.27,2.07-5.21,3.49-10.61,4.31-16.16.1-.69.06-1.4.13-2.1.01-.13.28-.23.43-.34v81.94c0,2.19-1.77,3.96-3.96,3.96h-75.43Z" fill="#fff" stroke-width="0"/><path d="M186.8,186.48c.23-.03.46-.05.69-.04,8.44.2,15.11,2.62,20.78,7.54,1.94,1.68,3.74,3.6,5.31,5.64,4.83,6.27,14.15,6.29,18.9-.04,5.39-7.18,12.53-11.6,21.41-12.86,9.41-1.33,17.3,2.2,22.56,9.96,3.21,4.74,4.81,10.39,4.91,16.11.14,7.59-2.08,14.6-5.63,21.3-2.57,4.87-5.78,9.28-9.39,13.41-6.81,7.8-14.61,14.49-23.21,20.19-6.26,4.15-12.8,7.87-19.25,11.73-.42.25-1.25.22-1.69-.03-4.44-2.5-8.93-4.93-13.22-7.66-6.48-4.13-12.82-8.49-18.53-13.68-2.98-2.71-6-5.41-8.76-8.34-4.91-5.23-9.16-10.96-12.3-17.47-1.76-3.64-3.23-7.39-3.98-11.36-1.59-8.49-.86-16.65,4.04-24.03,3.08-4.64,7.29-7.92,12.64-9.53,1.75-.53,3.61-.68,4.72-.82Z" fill="#fff" stroke-width="0"/></g></svg>